<?xml version="1.0" encoding="UTF-8" standalone="no"?>
<svg
   xmlns:dc="http://purl.org/dc/elements/1.1/"
   xmlns:cc="http://creativecommons.org/ns#"
   xmlns:rdf="http://www.w3.org/1999/02/22-rdf-syntax-ns#"
   xmlns:svg="http://www.w3.org/2000/svg"
   xmlns="http://www.w3.org/2000/svg"
   xmlns:xlink="http://www.w3.org/1999/xlink"
   xmlns:sodipodi="http://sodipodi.sourceforge.net/DTD/sodipodi-0.dtd"
   xmlns:inkscape="http://www.inkscape.org/namespaces/inkscape"
   id="generated_logo_1"
   viewBox="0 0 346.29102 100"
   version="1.1"
   sodipodi:docname="logo_transparent.svg"
   width="346.29102"
   height="100">
  <metadata
     id="metadata44">
    <rdf:RDF>
      <cc:Work
         rdf:about="">
        <dc:format>image/svg+xml</dc:format>
        <dc:type
           rdf:resource="http://purl.org/dc/dcmitype/StillImage" />
      </cc:Work>
    </rdf:RDF>
  </metadata>
  <defs
     id="defs42" />
  <sodipodi:namedview
     pagecolor="#ffffff"
     bordercolor="#666666"
     borderopacity="1"
     objecttolerance="10"
     gridtolerance="10"
     guidetolerance="10"
     inkscape:pageopacity="0"
     inkscape:pageshadow="2"
     inkscape:window-width="640"
     inkscape:window-height="480"
     id="namedview40" />
  <style
     type="text/css"
     class="styleimportlogofontmain"
     id="style2">@import url(&quot;https://fonts.googleapis.com/css2?family=Alfa Slab One:wght@400&quot;);#generated_logo_1 .maintypo { font-family: Alfa Slab One; font-weight: 400; }</style>
  <style
     type="text/css"
     class="styleimportlogofontsub"
     id="style4">@import url(&quot;https://fonts.googleapis.com/css2?family=Montserrat:wght@300;400;500;700;900&quot;);#generated_logo_1 .subtypo { font-family: Montserrat; font-weight: 500; }</style>
  <style
     type="text/css"
     class="styleimportlogopos"
     id="style6" />
  <g
     id="logo-elements"
     transform="translate(50,50)"
     transform-box="stroke-box">
    <g
       id="iconcontainer"
       transform-origin="center"
       transform-box="fill-box">
      <g
         class="iconBGGrpM"
         id="g10">
        <g
           class="iconBGGrp"
           transform="matrix(0.1,0,0,0.1,-50,-50)"
           id="g8" />
      </g>
      <g
         class="iconGrpM"
         id="g26">
        <g
           class="iconGrp"
           transform="matrix(0.1,0,0,0.1,-50,-50)"
           id="g24">
          <g
             class="lg_icon"
             id="lg_icon_46"
             stroke="none"
             stroke-width="1"
             fill="none"
             fill-rule="evenodd">
            <g
               id="0046">
              <defs
                 id="defs13">
                <polygon
                   id="path-1"
                   points="0,0.0003 399.99957,0.0003 399.99957,797.023 0,797.023 " />
              </defs>
              <path
                 id="FRAME"
                 style="fill:none"
                 d="M 0,0 V 1000 H 1000 V 0 Z" />
              <g
                 id="Icon"
                 transform="translate(300.00043,100.9997)">
                <mask
                   id="mask-2"
                   fill="#ffffff">
                  <use
                     xlink:href="#path-1"
                     id="use16"
                     x="0"
                     y="0"
                     width="100%"
                     height="100%" />
                </mask>
                <g
                   id="Clip-2" />
                <path
                   d="m 349.32967,664.828 c 0,44.953 -36.571,81.526 -81.525,81.526 h -7.331 c -44.954,0 -81.526,-36.573 -81.526,-81.526 V 494.464 c 0,-37.845 25.923,-69.744 60.944,-78.888 v 87.988 c 0,13.992 11.341,25.335 25.334,25.335 13.992,0 25.334,-11.343 25.334,-25.335 v -87.37 c 33.912,9.876 58.77,41.215 58.77,78.27 z m -58.77,-300.601 v -14.09 l -0.126,-1.258 c -0.339,-3.408 -3.918,-34.204 -24.345,-65.63 -19.532,-30.051 -58.165,-65.872 -131.288,-65.872 -29.494,0 -51.408996,-7.593 -65.135996,-22.569 -20.661,-22.543 -18.477,-56.467 -18.336,-58.34 l 0.127,-1.114 -0.788,-110.2 C 50.568674,11.224 39.245674,0 25.338674,0 c -0.062,0 -0.124,0 -0.186,0 C 11.161674,0.101 -0.10032594,11.524 0,25.516 L 0.76867406,133.16 c -0.65,9.762 -2.06299996,58.753 31.08199994,95.378 23.725,26.216 58.362,39.509 102.949996,39.509 39.755,0 69.306,13.914 87.838,41.357 12.903,19.108 16.545,38.988 17.253,43.651 v 10.812 c -63.234,9.886 -111.614,64.59 -111.614,130.597 v 170.364 c 0,73.009 59.187,132.195 132.196,132.195 h 7.331 c 73.009,0 132.195,-59.186 132.195,-132.195 V 494.464 c 0,-65.249 -47.274,-119.45 -109.44,-130.237 z"
                   id="Fill-1"
                   fill="#2f4dff" />
              </g>
            </g>
          </g>
        </g>
      </g>
    </g>
    <g
       id="textlines">
      <g
         id="einsg">
        <g
           aria-label="bkstocks"
           id="eins"
           style="text-rendering:geometricPrecision">
          <path
             d="M 90.645,-4.51 Q 88.86,-4.51 87.46,-5.385 86.095,-6.26 85.22,-7.38 V -5 h -9.59 v -5.74 h 1.54 v -15.75 h -1.54 v -5.74 h 9.59 v 10.15 q 0.875,-1.12 2.24,-1.995 1.4,-0.875 3.185,-0.875 3.57,0 5.355,2.66 1.82,2.66 1.82,7.56 0,4.9 -1.82,7.56 -1.785,2.66 -5.355,2.66 z m -3.395,-6.23 q 1.015,0 1.505,-0.525 0.525,-0.56 0.525,-1.715 v -3.5 q 0,-1.155 -0.525,-1.68 -0.49,-0.56 -1.505,-0.56 -1.015,0 -1.54,0.56 -0.49,0.525 -0.49,1.68 v 3.5 q 0,1.155 0.49,1.715 0.525,0.525 1.54,0.525 z"
             style="font-weight:400;font-size:35px;font-family:'Alfa Slab One';letter-spacing:1;fill:#0000ff"
             id="path47" />
          <path
             d="m 120.90883,-10.74 h 1.505 V -5 h -8.575 l -3.605,-6.72 h -0.84 V -5 h -9.590002 v -5.74 h 1.540002 v -15.75 h -1.540002 v -5.74 h 9.590002 v 14.21 h 0.84 l 4.34,-6.44 h 7.385 v 5.74 h -1.435 l -2.975,3.325 z"
             style="font-weight:400;font-size:35px;font-family:'Alfa Slab One';letter-spacing:1;fill:#0000ff"
             id="path49" />
          <path
             d="m 133.02953,-4.51 q -4.41,0 -8.505,-1.4 v -5.18 h 5.67 v 0.35 q 0,1.68 2.135,1.68 1.89,0 1.89,-1.295 0,-0.7 -0.56,-1.05 -0.525,-0.35 -1.89,-0.595 l -1.75,-0.315 q -5.495,-0.98 -5.495,-6.23 0,-3.045 2.31,-4.725 2.31,-1.68 6.23,-1.68 4.375,0 7.385,1.47 v 4.865 h -5.32 v -0.35 q 0,-0.7 -0.49,-1.05 -0.455,-0.385 -1.365,-0.385 -1.75,0 -1.75,1.12 0,0.595 0.49,0.91 0.49,0.315 1.785,0.595 l 1.995,0.385 q 3.115,0.595 4.445,2.205 1.33,1.61 1.33,4.13 0,3.185 -2.24,4.865 -2.205,1.68 -6.3,1.68 z"
             style="font-weight:400;font-size:35px;font-family:'Alfa Slab One';letter-spacing:1;fill:#0000ff"
             id="path51" />
          <path
             d="m 152.35312,-4.51 q -3.71,0 -5.6,-1.785 -1.855,-1.82 -1.855,-6.09 v -6.335 h -1.54 v -5.74 q 1.33001,0 1.995,-0.665 0.665,-0.7 0.665,-1.89 v -1.575 h 7.42001 v 4.13 h 4.72499 v 5.74 h -4.72499 v 5.74 q 0,1.155 0.48999,1.715 0.525,0.525 1.54,0.525 1.33,0 2.905,-0.315 v 5.495 q -0.98,0.385 -2.66,0.7 -1.645,0.35 -3.36,0.35 z"
             style="font-weight:400;font-size:35px;font-family:'Alfa Slab One';letter-spacing:1;fill:#0000ff"
             id="path53" />
          <path
             d="m 170.92914,-4.51 q -4.97,0 -7.77,-2.59 -2.8,-2.625 -2.8,-7.63 0,-5.005 2.8,-7.595 2.8,-2.625 7.77,-2.625 5.04,0 7.805,2.66 2.765,2.625 2.765,7.56 0,5.005 -2.8,7.63 -2.8,2.59 -7.77,2.59 z m 0,-6.23 q 1.015,0 1.505,-0.525 0.525,-0.56 0.525,-1.715 v -3.5 q 0,-1.155 -0.525,-1.68 -0.49,-0.56 -1.505,-0.56 -1.015,0 -1.54,0.56 -0.49,0.525 -0.49,1.68 v 3.5 q 0,1.155 0.49,1.715 0.525,0.525 1.54,0.525 z"
             style="font-weight:400;font-size:35px;font-family:'Alfa Slab One';letter-spacing:1;fill:#0000ff"
             id="path55" />
          <path
             d="m 194.11258,-4.51 q -5.005,0 -7.805,-2.59 -2.8,-2.625 -2.8,-7.63 0,-5.005 2.8,-7.595 2.8,-2.625 7.77,-2.625 2.415,0 4.62,0.665 2.205,0.665 3.43,1.505 v 6.93 h -6.02 v -0.63 q 0,-1.155 -0.49,-1.68 -0.49,-0.56 -1.54,-0.56 -2.03,0 -2.03,2.24 v 3.01 q 0,2.73 3.115,2.73 2.905,0 6.755,-0.63 v 5.495 q -1.19,0.525 -3.36,0.945 -2.135,0.42 -4.445,0.42 z"
             style="font-weight:400;font-size:35px;font-family:'Alfa Slab One';letter-spacing:1;fill:#0000ff"
             id="path57" />
          <path
             d="m 225.44008,-10.74 h 1.505 V -5 h -8.575 l -3.605,-6.72 h -0.84 V -5 h -9.59 v -5.74 h 1.54 v -15.75 h -1.54 v -5.74 h 9.59 v 14.21 h 0.84 l 4.34,-6.44 h 7.385 v 5.74 h -1.435 l -2.975,3.325 z"
             style="font-weight:400;font-size:35px;font-family:'Alfa Slab One';letter-spacing:1;fill:#0000ff"
             id="path59" />
          <path
             d="m 237.56078,-4.51 q -4.41,0 -8.505,-1.4 v -5.18 h 5.67 v 0.35 q 0,1.68 2.135,1.68 1.89,0 1.89,-1.295 0,-0.7 -0.56,-1.05 -0.525,-0.35 -1.89,-0.595 l -1.75,-0.315 q -5.495,-0.98 -5.495,-6.23 0,-3.045 2.31,-4.725 2.31,-1.68 6.23,-1.68 4.375,0 7.385,1.47 v 4.865 h -5.32 v -0.35 q 0,-0.7 -0.49,-1.05 -0.455,-0.385 -1.365,-0.385 -1.75,0 -1.75,1.12 0,0.595 0.49,0.91 0.49,0.315 1.785,0.595 l 1.995,0.385 q 3.115,0.595 4.445,2.205 1.33,1.61 1.33,4.13 0,3.185 -2.24,4.865 -2.205,1.68 -6.3,1.68 z"
             style="font-weight:400;font-size:35px;font-family:'Alfa Slab One';letter-spacing:1;fill:#0000ff"
             id="path61" />
        </g>
      </g>
      <g
         id="zweig"
         transform="translate(0,5)">
        <g
           aria-label="B2B sales online"
           id="zwei"
           style="dominant-baseline:text-before-edge;text-rendering:geometricPrecision">
          <path
             d="m 89.4,10.777337 q 1.525,0.425 2.4,1.55 0.875,1.1 0.875,2.8 0,2.275 -1.725,3.5 -1.7,1.225 -4.975,1.225 h -8.35 V 2.3523369 h 7.85 q 3,0 4.625,1.2 1.65,1.2 1.65,3.325 0,1.375 -0.65,2.375 -0.625,1.0000001 -1.7,1.5250001 z M 80.125,4.3773369 v 5.6 h 5.125 q 1.925,0 2.95,-0.7 1.05,-0.725 1.05,-2.1 0,-1.375 -1.05,-2.075 -1.025,-0.725 -2.95,-0.725 z m 5.75,13.4500001 q 2.125,0 3.2,-0.7 1.075,-0.7 1.075,-2.2 0,-2.925 -4.275,-2.925 h -5.75 v 5.825 z"
             style="font-weight:500;font-size:25px;font-family:Montserrat;letter-spacing:1;dominant-baseline:text-before-edge;fill:#088cc4"
             id="path64" />
          <path
             d="m 108.44531,17.677337 v 2.175 H 95.870312 v -1.7 l 7.124998,-6.875 q 1.3,-1.25 1.75,-2.1500001 0.45,-0.925 0.45,-1.85 0,-1.375 -0.975,-2.125 -0.95,-0.775 -2.75,-0.775 -2.899998,0 -4.474998,1.9 l -1.7,-1.475 q 1.025,-1.25 2.675001,-1.95 1.675,-0.7 3.724997,-0.7 2.75,0 4.375,1.325 1.625,1.3 1.625,3.55 0,1.4 -0.6,2.65 -0.6,1.2500001 -2.275,2.8500001 l -5.349997,5.15 z"
             style="font-weight:500;font-size:25px;font-family:Montserrat;letter-spacing:1;dominant-baseline:text-before-edge;fill:#088cc4"
             id="path66" />
          <path
             d="m 124.70078,10.777337 q 1.525,0.425 2.4,1.55 0.875,1.1 0.875,2.8 0,2.275 -1.725,3.5 -1.7,1.225 -4.975,1.225 h -8.35 V 2.3523369 h 7.85 q 3,0 4.625,1.2 1.65,1.2 1.65,3.325 0,1.375 -0.65,2.375 -0.625,1.0000001 -1.7,1.5250001 z m -9.275,-6.4000001 v 5.6 h 5.125 q 1.925,0 2.95,-0.7 1.05,-0.725 1.05,-2.1 0,-1.375 -1.05,-2.075 -1.025,-0.725 -2.95,-0.725 z m 5.75,13.4500001 q 2.125,0 3.2,-0.7 1.075,-0.7 1.075,-2.2 0,-2.925 -4.275,-2.925 h -5.75 v 5.825 z"
             style="font-weight:500;font-size:25px;font-family:Montserrat;letter-spacing:1;dominant-baseline:text-before-edge;fill:#088cc4"
             id="path68" />
          <path
             d="m 144.05937,20.002337 q -1.625,0 -3.125,-0.425 -1.5,-0.45 -2.35,-1.125 l 1,-1.9 q 0.875,0.625 2.125,1 1.25,0.375 2.525,0.375 3.15,0 3.15,-1.8 0,-0.6 -0.425,-0.95 -0.425,-0.35 -1.075,-0.5 -0.625,-0.175 -1.8,-0.375 -1.6,-0.25 -2.625,-0.575 -1,-0.325 -1.725,-1.1 -0.725,-0.775 -0.725,-2.175 0,-1.8000001 1.5,-2.8750001 1.5,-1.1 4.025,-1.1 1.325,0 2.65,0.325 1.325,0.325 2.175,0.875 l -1.025,1.9 q -1.625,-1.05 -3.825,-1.05 -1.525,0 -2.325,0.5 -0.8,0.5 -0.8,1.3250001 0,0.65 0.45,1.025 0.45,0.375 1.1,0.55 0.675,0.175 1.875,0.4 1.6,0.275 2.575,0.6 1,0.3 1.7,1.05 0.7,0.75 0.7,2.1 0,1.8 -1.55,2.875 -1.525,1.05 -4.175,1.05 z"
             style="font-weight:500;font-size:25px;font-family:Montserrat;letter-spacing:1;dominant-baseline:text-before-edge;fill:#088cc4"
             id="path70" />
          <path
             d="m 158.6332,6.4773369 q 2.75,0 4.2,1.35 1.475,1.35 1.475,4.0250001 v 8 h -2.275 v -1.75 q -0.6,0.925 -1.725,1.425 -1.1,0.475 -2.625,0.475 -2.225,0 -3.575,-1.075 -1.325,-1.075 -1.325,-2.825 0,-1.75 1.275,-2.8 1.275,-1.075 4.05,-1.075 h 3.8 v -0.475 q 0,-1.55 -0.9,-2.3750001 -0.9,-0.825 -2.65,-0.825 -1.175,0 -2.3,0.4 -1.125,0.375 -1.9,1.025 l -1,-1.8 q 1.025,-0.825 2.45,-1.25 1.425,-0.45 3.025,-0.45 z m -0.55,11.6750001 q 1.375,0 2.375,-0.6 1,-0.625 1.45,-1.75 v -1.85 h -3.7 q -3.05,0 -3.05,2.05 0,1 0.775,1.575 0.775,0.575 2.15,0.575 z"
             style="font-weight:500;font-size:25px;font-family:Montserrat;letter-spacing:1;dominant-baseline:text-before-edge;fill:#088cc4"
             id="path72" />
          <path
             d="m 169.74961,1.3023369 h 2.4 V 19.852337 h -2.4 z"
             style="font-weight:500;font-size:25px;font-family:Montserrat;letter-spacing:1;dominant-baseline:text-before-edge;fill:#088cc4"
             id="path74" />
          <path
             d="m 189.70703,13.302337 q 0,0.275 -0.05,0.725 h -10.75 q 0.225,1.75 1.525,2.825 1.325,1.05 3.275,1.05 2.375,0 3.825,-1.6 l 1.325,1.55 q -0.9,1.05 -2.25,1.6 -1.325,0.55 -2.975,0.55 -2.1,0 -3.725,-0.85 -1.625,-0.875 -2.525,-2.425 -0.875,-1.55 -0.875,-3.5 0,-1.925 0.85,-3.4750001 0.875,-1.55 2.375,-2.4 1.525,-0.875 3.425,-0.875 1.9,0 3.375,0.875 1.5,0.85 2.325,2.4 0.85,1.5500001 0.85,3.5500001 z m -6.55,-4.8000001 q -1.725,0 -2.9,1.05 -1.15,1.0500001 -1.35,2.7500001 h 8.5 q -0.2,-1.675 -1.375,-2.7250001 -1.15,-1.075 -2.875,-1.075 z"
             style="font-weight:500;font-size:25px;font-family:Montserrat;letter-spacing:1;dominant-baseline:text-before-edge;fill:#088cc4"
             id="path76" />
          <path
             d="m 197.81523,20.002337 q -1.625,0 -3.125,-0.425 -1.5,-0.45 -2.35,-1.125 l 1,-1.9 q 0.875,0.625 2.125,1 1.25,0.375 2.525,0.375 3.15,0 3.15,-1.8 0,-0.6 -0.425,-0.95 -0.425,-0.35 -1.075,-0.5 -0.625,-0.175 -1.8,-0.375 -1.6,-0.25 -2.625,-0.575 -1,-0.325 -1.725,-1.1 -0.725,-0.775 -0.725,-2.175 0,-1.8000001 1.5,-2.8750001 1.5,-1.1 4.025,-1.1 1.325,0 2.65,0.325 1.325,0.325 2.175,0.875 l -1.025,1.9 q -1.625,-1.05 -3.825,-1.05 -1.525,0 -2.325,0.5 -0.8,0.5 -0.8,1.3250001 0,0.65 0.45,1.025 0.45,0.375 1.1,0.55 0.675,0.175 1.875,0.4 1.6,0.275 2.575,0.6 1,0.3 1.7,1.05 0.7,0.75 0.7,2.1 0,1.8 -1.55,2.875 -1.525,1.05 -4.175,1.05 z"
             style="font-weight:500;font-size:25px;font-family:Montserrat;letter-spacing:1;dominant-baseline:text-before-edge;fill:#088cc4"
             id="path78" />
          <path
             d="m 220.97734,20.002337 q -1.975,0 -3.55,-0.875 -1.575,-0.875 -2.475,-2.4 -0.875,-1.55 -0.875,-3.5 0,-1.95 0.875,-3.4750001 0.9,-1.55 2.475,-2.4 1.575,-0.875 3.55,-0.875 1.975,0 3.525,0.875 1.575,0.85 2.45,2.4 0.9,1.5250001 0.9,3.4750001 0,1.95 -0.9,3.5 -0.875,1.525 -2.45,2.4 -1.55,0.875 -3.525,0.875 z m 0,-2.1 q 1.275,0 2.275,-0.575 1.025,-0.6 1.6,-1.65 0.575,-1.075 0.575,-2.45 0,-1.375 -0.575,-2.425 -0.575,-1.0750001 -1.6,-1.6500001 -1,-0.575 -2.275,-0.575 -1.275,0 -2.3,0.575 -1,0.575 -1.6,1.6500001 -0.575,1.05 -0.575,2.425 0,1.375 0.575,2.45 0.6,1.05 1.6,1.65 1.025,0.575 2.3,0.575 z"
             style="font-weight:500;font-size:25px;font-family:Montserrat;letter-spacing:1;dominant-baseline:text-before-edge;fill:#088cc4"
             id="path80" />
          <path
             d="m 239.24648,6.4773369 q 2.525,0 4,1.475 1.5,1.45 1.5,4.2750001 v 7.625 h -2.4 v -7.35 q 0,-1.925 -0.925,-2.9000001 -0.925,-0.975 -2.65,-0.975 -1.95,0 -3.075,1.15 -1.125,1.1250001 -1.125,3.2500001 v 6.825 h -2.4 V 6.6023369 h 2.3 v 2 q 0.725,-1.025 1.95,-1.575 1.25,-0.55 2.825,-0.55 z"
             style="font-weight:500;font-size:25px;font-family:Montserrat;letter-spacing:1;dominant-baseline:text-before-edge;fill:#088cc4"
             id="path82" />
          <path
             d="m 250.2125,1.3023369 h 2.4 V 19.852337 h -2.4 z"
             style="font-weight:500;font-size:25px;font-family:Montserrat;letter-spacing:1;dominant-baseline:text-before-edge;fill:#088cc4"
             id="path84" />
          <path
             d="m 258.19492,6.6023369 h 2.4 V 19.852337 h -2.4 z m 1.2,-2.55 q -0.7,0 -1.175,-0.45 -0.45,-0.45 -0.45,-1.1 0,-0.65 0.45,-1.1 0.475,-0.47500002 1.175,-0.47500002 0.7,0 1.15,0.45000002 0.475,0.425 0.475,1.075 0,0.675 -0.475,1.15 -0.45,0.45 -1.15,0.45 z"
             style="font-weight:500;font-size:25px;font-family:Montserrat;letter-spacing:1;dominant-baseline:text-before-edge;fill:#088cc4"
             id="path86" />
          <path
             d="m 273.25234,6.4773369 q 2.525,0 4,1.475 1.5,1.45 1.5,4.2750001 v 7.625 h -2.4 v -7.35 q 0,-1.925 -0.925,-2.9000001 -0.925,-0.975 -2.65,-0.975 -1.95,0 -3.075,1.15 -1.125,1.1250001 -1.125,3.2500001 v 6.825 h -2.4 V 6.6023369 h 2.3 v 2 q 0.725,-1.025 1.95,-1.575 1.25,-0.55 2.825,-0.55 z"
             style="font-weight:500;font-size:25px;font-family:Montserrat;letter-spacing:1;dominant-baseline:text-before-edge;fill:#088cc4"
             id="path88" />
          <path
             d="m 296.29102,13.302337 q 0,0.275 -0.05,0.725 h -10.75 q 0.225,1.75 1.525,2.825 1.325,1.05 3.275,1.05 2.375,0 3.825,-1.6 l 1.325,1.55 q -0.9,1.05 -2.25,1.6 -1.325,0.55 -2.975,0.55 -2.1,0 -3.725,-0.85 -1.625,-0.875 -2.525,-2.425 -0.875,-1.55 -0.875,-3.5 0,-1.925 0.85,-3.4750001 0.875,-1.55 2.375,-2.4 1.525,-0.875 3.425,-0.875 1.9,0 3.375,0.875 1.5,0.85 2.325,2.4 0.85,1.5500001 0.85,3.5500001 z m -6.55,-4.8000001 q -1.725,0 -2.9,1.05 -1.15,1.0500001 -1.35,2.7500001 h 8.5 q -0.2,-1.675 -1.375,-2.7250001 -1.15,-1.075 -2.875,-1.075 z"
             style="font-weight:500;font-size:25px;font-family:Montserrat;letter-spacing:1;dominant-baseline:text-before-edge;fill:#088cc4"
             id="path90" />
        </g>
      </g>
    </g>
  </g>
</svg>
