<?xml version="1.0" encoding="UTF-8" standalone="no"?>
<svg
   xmlns:dc="http://purl.org/dc/elements/1.1/"
   xmlns:cc="http://creativecommons.org/ns#"
   xmlns:rdf="http://www.w3.org/1999/02/22-rdf-syntax-ns#"
   xmlns:svg="http://www.w3.org/2000/svg"
   xmlns="http://www.w3.org/2000/svg"
   xmlns:xlink="http://www.w3.org/1999/xlink"
   xmlns:sodipodi="http://sodipodi.sourceforge.net/DTD/sodipodi-0.dtd"
   xmlns:inkscape="http://www.inkscape.org/namespaces/inkscape"
   id="generated_logo_1"
   viewBox="0 0 326.1871 100"
   version="1.1"
   sodipodi:docname="logo_transparent.svg"
   width="326.1871"
   height="100">
  <metadata
     id="metadata44">
    <rdf:RDF>
      <cc:Work
         rdf:about="">
        <dc:format>image/svg+xml</dc:format>
        <dc:type
           rdf:resource="http://purl.org/dc/dcmitype/StillImage" />
      </cc:Work>
    </rdf:RDF>
  </metadata>
  <defs
     id="defs42" />
  <sodipodi:namedview
     pagecolor="#ffffff"
     bordercolor="#666666"
     borderopacity="1"
     objecttolerance="10"
     gridtolerance="10"
     guidetolerance="10"
     inkscape:pageopacity="0"
     inkscape:pageshadow="2"
     inkscape:window-width="640"
     inkscape:window-height="480"
     id="namedview40" />
  <style
     type="text/css"
     class="styleimportlogofontmain"
     id="style2">@import url(&quot;https://fonts.googleapis.com/css2?family=Homemade Apple:wght@400&quot;);#generated_logo_1 .maintypo { font-family: Homemade Apple; font-weight: 400; }</style>
  <style
     type="text/css"
     class="styleimportlogofontsub"
     id="style4">@import url(&quot;https://fonts.googleapis.com/css2?family=Raleway:wght@300;400;500;700;900&quot;);#generated_logo_1 .subtypo { font-family: Raleway; font-weight: 300; }</style>
  <style
     type="text/css"
     class="styleimportlogopos"
     id="style6" />
  <g
     id="logo-elements"
     transform="translate(50,50)"
     transform-box="stroke-box">
    <g
       id="iconcontainer"
       transform-origin="center"
       transform-box="fill-box">
      <g
         class="iconBGGrpM"
         id="g10">
        <g
           class="iconBGGrp"
           transform="matrix(0.1,0,0,0.1,-50,-50)"
           id="g8" />
      </g>
      <g
         class="iconGrpM"
         id="g26">
        <g
           class="iconGrp"
           transform="matrix(0.1,0,0,0.1,-50,-50)"
           id="g24">
          <g
             class="lg_icon"
             id="lg_icon_46"
             stroke="none"
             stroke-width="1"
             fill="none"
             fill-rule="evenodd">
            <g
               id="0046">
              <defs
                 id="defs13">
                <polygon
                   id="path-1"
                   points="0,0.0003 399.99957,0.0003 399.99957,797.023 0,797.023 " />
              </defs>
              <path
                 id="FRAME"
                 style="fill:none"
                 d="M 0,0 V 1000 H 1000 V 0 Z" />
              <g
                 id="Icon"
                 transform="translate(300.00043,100.9997)">
                <mask
                   id="mask-2"
                   fill="#ffffff">
                  <use
                     xlink:href="#path-1"
                     id="use16"
                     x="0"
                     y="0"
                     width="100%"
                     height="100%" />
                </mask>
                <g
                   id="Clip-2" />
                <path
                   d="m 349.32967,664.828 c 0,44.953 -36.571,81.526 -81.525,81.526 h -7.331 c -44.954,0 -81.526,-36.573 -81.526,-81.526 V 494.464 c 0,-37.845 25.923,-69.744 60.944,-78.888 v 87.988 c 0,13.992 11.341,25.335 25.334,25.335 13.992,0 25.334,-11.343 25.334,-25.335 v -87.37 c 33.912,9.876 58.77,41.215 58.77,78.27 z m -58.77,-300.601 v -14.09 l -0.126,-1.258 c -0.339,-3.408 -3.918,-34.204 -24.345,-65.63 -19.532,-30.051 -58.165,-65.872 -131.288,-65.872 -29.494,0 -51.408996,-7.593 -65.135996,-22.569 -20.661,-22.543 -18.477,-56.467 -18.336,-58.34 l 0.127,-1.114 -0.788,-110.2 C 50.568674,11.224 39.245674,0 25.338674,0 c -0.062,0 -0.124,0 -0.186,0 C 11.161674,0.101 -0.10032594,11.524 0,25.516 L 0.76867406,133.16 c -0.65,9.762 -2.06299996,58.753 31.08199994,95.378 23.725,26.216 58.362,39.509 102.949996,39.509 39.755,0 69.306,13.914 87.838,41.357 12.903,19.108 16.545,38.988 17.253,43.651 v 10.812 c -63.234,9.886 -111.614,64.59 -111.614,130.597 v 170.364 c 0,73.009 59.187,132.195 132.196,132.195 h 7.331 c 73.009,0 132.195,-59.186 132.195,-132.195 V 494.464 c 0,-65.249 -47.274,-119.45 -109.44,-130.237 z"
                   id="Fill-1"
                   fill="#99a93c" />
              </g>
            </g>
          </g>
        </g>
      </g>
    </g>
    <g
       id="textlines">
      <g
         id="einsg">
        <g
           aria-label="bkstocks"
           id="eins"
           style="text-rendering:geometricPrecision">
          <path
             d="m 99.199219,-14.228516 q -0.307617,1.640625 -1.09375,2.666016 -0.751953,0.991211 -2.050782,2.0166016 0.239258,0.102539 0.273438,0.2392578 0.06836,0.102539 0.06836,0.3076172 l -0.06836,0.1708984 q -0.307617,-0.2392578 -0.581055,-0.2392578 -0.273437,-0.03418 -0.512695,0.102539 -0.239258,0.1025391 -0.478516,0.3076172 -0.239257,0.1708985 -0.478515,0.3759766 -0.751953,0 -1.572266,0.2392578 -0.820312,0.2050781 -1.606445,0.3076172 -0.751953,0.1025391 -1.401367,-0.1025391 -0.649414,-0.2392578 -1.059571,-1.1279297 -0.273437,-0.102539 -0.581054,-0.1708984 -0.273438,-0.1025391 -0.546875,-0.1708984 -0.581055,1.09375 -1.435547,2.1191406 -0.820313,0.9912109 -1.845703,1.8798828 -1.025391,0.8544922 -2.1875,1.5380859 -1.12793,0.6835938 -2.25586,1.0595704 l -0.102539,0.03418 q -0.136719,-0.2050781 -0.239258,-0.2734375 -0.102539,-0.068359 -0.239257,-0.03418 -0.10254,0.03418 -0.273438,0.068359 -0.136719,0.068359 -0.375977,0.068359 l -0.239257,0.410157 Q 77.836914,-2.7783203 77.734375,-3.2226563 77.631836,-3.6328125 77.22168,-3.8037109 l -0.307618,0.3759765 -0.102539,-0.102539 q -0.615234,-0.6152344 -1.05957,-1.6064453 -0.444336,-0.991211 -0.717773,-2.084961 -0.273438,-1.1279297 -0.341797,-2.2216797 -0.102539,-1.0937496 0,-1.9140626 -0.273438,-0.273437 -0.649414,-0.478516 -0.375977,-0.205078 -0.444336,-0.615234 l 0.03418,-0.03418 q 0.06836,-0.410156 0.410157,-0.546875 0.307617,-0.136718 0.683593,-0.170898 0.375977,-0.03418 0.717774,-0.03418 0.341797,0 0.444336,-0.136718 0,-0.205079 -0.170899,-0.410157 -0.136718,-0.205078 -0.273437,-0.375976 0,-0.341797 0.170898,-0.512696 0.170899,-0.170898 0.375977,-0.307617 0.205078,-0.136719 0.375976,-0.239258 0.170899,-0.102539 0.170899,-0.273437 0,-0.136719 -0.06836,-0.239258 -0.06836,-0.102539 -0.136719,-0.273437 0.512695,-0.06836 0.615234,-0.341797 0.102539,-0.273438 0.444336,-0.581055 -0.205078,-0.273437 -0.06836,-0.581055 0.136718,-0.341796 0.307617,-0.649414 0.170898,-0.341797 0.239258,-0.615234 0.102539,-0.307617 -0.170899,-0.546875 -0.03418,0 -0.03418,0 0,-0.03418 -0.03418,-0.03418 0.717773,-2.11914 1.401367,-4.238281 0.717774,-2.15332 1.503906,-4.238281 0.820313,-2.084961 1.743164,-4.101563 0.957032,-2.016601 2.153321,-3.930664 0.03418,-0.444336 0.239258,-0.683594 0.239257,-0.239257 0.546875,-0.341796 0.307617,-0.136719 0.683593,-0.239258 0.375977,-0.102539 0.683594,-0.273438 0.307617,-0.205078 0.512695,-0.512695 0.205078,-0.307617 0.205078,-0.888672 0.546875,0.136719 1.025391,0.136719 0.478516,0 0.922852,0.03418 0.478515,0.03418 0.888672,0.205078 0.444335,0.170898 0.854492,0.683593 l 0.03418,0.03418 q 0.03418,0.136719 -0.03418,0.410156 -0.03418,0.239258 -0.03418,0.410157 0,0.683593 0.102539,1.401367 0.136719,0.717773 0.102539,1.435547 -0.03418,0.683593 -0.307617,1.298828 -0.273438,0.581054 -1.025391,1.02539 0.341797,0.888672 0,1.606446 -0.307617,0.683593 -0.854492,1.333008 -0.546875,0.649414 -1.05957,1.333007 -0.478516,0.683594 -0.478516,1.538086 -0.546875,0.273438 -0.854492,0.786133 -0.307617,0.478516 -0.615234,1.025391 -0.273438,0.546875 -0.649414,1.02539 -0.341797,0.444336 -1.025391,0.649414 -0.307617,1.230469 -1.12793,2.1875 -0.820312,0.957032 -1.674804,1.879883 -0.854493,0.922852 -1.538086,1.914063 -0.649414,0.991211 -0.649414,2.290039 -0.957032,0.922851 -1.264649,2.11914 -0.273437,1.196289 -0.273437,2.4609379 0,0.3759765 0.03418,0.7519531 0.03418,0.3759766 0.03418,0.7519531 -0.273437,-0.1708984 -0.478516,0.1367188 l -0.03418,0.068359 q 0.273437,0.7177734 0.615234,1.4013671 0.375977,0.6494141 0.922852,1.2304688 0.888672,-0.2734375 1.743164,-0.5810547 0.888672,-0.3417969 1.811523,-0.5810547 0.205078,-0.8203125 0.751953,-1.1279297 0.581055,-0.3417968 1.12793,-0.5810547 0.581055,-0.2392578 1.025391,-0.5810547 0.444336,-0.3417968 0.444336,-1.2304687 h 0.06836 q 0.512695,-0.1025386 0.786133,-0.4443356 0.273437,-0.375977 0.410156,-0.820312 0.170898,-0.478516 0.205078,-0.991211 0.06836,-0.512696 0.102539,-0.922852 -0.102539,-0.170898 -0.06836,-0.478516 0.06836,-0.341796 0.102539,-0.683593 0.06836,-0.375977 0.03418,-0.751953 0,-0.375977 -0.170899,-0.683594 v -0.06836 l 0.03418,-0.06836 q 0.170898,-0.341797 0.341797,-0.615234 0.170898,-0.307617 0.307617,-0.649414 0.341797,-0.922852 0.786133,-1.435547 0.444336,-0.512696 1.538086,-0.512696 0.683593,0.410157 0.786132,0.888672 0.136719,0.478516 0,1.025391 -0.136718,0.546875 -0.307617,1.162109 -0.170898,0.581055 -0.06836,1.16211 l 0.06836,0.102539 q -0.205078,0.03418 -0.375976,0.205078 -0.170899,0.170898 -0.341797,0.375976 -0.170899,0.205079 -0.341797,0.410157 -0.136719,0.205078 -0.239258,0.341797 0.239258,0.375976 0.273438,0.786132 0.03418,0.375977 0.06836,0.717774 0.06836,0.307617 0.273437,0.581054 0.239258,0.239258 0.820313,0.273438 0.615234,0.06836 1.264648,0.170898 0.649414,0.102539 1.264649,0.136719 0.649414,0 1.230469,-0.136719 0.615234,-0.136718 1.127929,-0.581054 0,-0.444336 0.170899,-0.581055 0.205078,-0.136719 0.444336,-0.170898 0.273437,-0.03418 0.546875,-0.03418 0.273437,-0.03418 0.444336,-0.273438 -0.205079,-0.06836 -0.273438,-0.136718 -0.03418,-0.102539 -0.273437,0.102539 l -0.102539,-0.478516 0.205078,-0.136719 q 0.239257,0.205078 0.478515,0.136719 0.239258,-0.102539 0.444336,-0.273437 0.239258,-0.205079 0.444336,-0.410157 0.239258,-0.239257 0.444336,-0.341797 l 0.205078,-0.307617 z M 88.876953,-35.966797 q -0.102539,0.03418 -0.239258,0.102539 -0.478515,0.239258 -1.02539,0.546875 -0.546875,0.307617 -1.025391,0.717774 -0.444336,0.375976 -0.751953,0.888672 -0.307617,0.478515 -0.307617,1.09375 0,0.102539 0,0.341796 0,0.205079 0.06836,0.273438 -0.136719,0.06836 -0.273437,0.307617 -0.102539,0.205078 -0.273438,0.478516 -0.136719,0.239258 -0.375976,0.478515 -0.205079,0.205078 -0.546875,0.273438 0.307617,0.444336 0.307617,0.922851 0,0.444336 -0.170899,0.888672 -0.170898,0.444336 -0.478515,0.888672 -0.273438,0.410156 -0.546875,0.786133 l -0.136719,-0.102539 q 0.170898,0.683594 0.03418,1.298828 -0.102539,0.581055 -0.341797,1.162109 -0.205078,0.546875 -0.478516,1.09375 -0.273437,0.546875 -0.444336,1.16211 0.273438,-0.307617 0.478516,-0.649414 0.239258,-0.341797 0.478515,-0.683594 0.06836,0.06836 0.239258,0.205078 0.205078,0.102539 0.273438,0.102539 -0.102539,-0.170898 -0.205078,-0.375976 -0.102539,-0.205079 -0.205079,-0.375977 v -0.06836 q 0.444336,-0.751953 1.09375,-1.298828 0.649415,-0.581055 1.230469,-1.16211 0,-0.957031 0.375977,-1.538086 0.410156,-0.615234 0.888672,-1.09375 0.512695,-0.512695 0.888672,-0.991211 0.410156,-0.512695 0.410156,-1.264648 0,-0.170899 -0.03418,-0.444336 -0.03418,-0.307617 -0.102539,-0.478516 l 0.102539,-0.03418 q 0.649414,-0.205079 0.854492,-0.581055 0.205078,-0.410156 0.205078,-0.854492 0.03418,-0.478516 -0.03418,-0.991211 -0.03418,-0.546875 0.06836,-1.025391 z"
             style="font-weight:400;font-size:35px;font-family:'Homemade Apple';letter-spacing:1;fill:#99a93c"
             id="path47" />
          <path
             d="m 122.62109,-14.296875 q -0.0684,0.922852 -0.51269,1.640625 -0.41016,0.717773 -1.02539,1.333008 -0.61524,0.581054 -1.33301,1.127929 -0.71777,0.5126958 -1.29883,1.0937505 0.10254,0.7177734 -0.20508,0.8544922 -0.30761,0.1367187 -0.75195,0.1708984 -0.41016,0 -0.85449,0.1025391 -0.41016,0.068359 -0.54688,0.6835937 -0.47851,0 -0.78613,0.3076172 -0.30762,0.3076172 -0.61523,0.6494141 -0.30762,0.3076172 -0.71778,0.546875 -0.37597,0.2050781 -0.99121,0.1025391 -0.1709,0.3417968 -0.44433,0.4443359 -0.27344,0.1025391 -0.58106,0.1367187 -0.30762,0.03418 -0.61523,0.1025391 -0.27344,0.068359 -0.47852,0.3417969 l -0.51269,-0.7519531 q -1.46973,0.649414 -2.8711,0.546875 -1.36719,-0.1025391 -2.90527,-0.3076172 -0.20508,-0.3759766 -0.47852,-0.6835938 -0.23925,-0.3076172 -0.51269,-0.6152344 -0.23926,-0.3076171 -0.47852,-0.6152343 -0.20508,-0.3076172 -0.34179,-0.7177735 l 0.51269,-0.5126953 -0.51269,-0.5126953 q 0,-0.2734375 0.0342,-0.6152344 0.0342,-0.3417969 0,-0.6494136 0,-0.341797 -0.13672,-0.615235 -0.10254,-0.307617 -0.44434,-0.478515 -0.78613,0.751953 -1.36719,1.6748042 -0.54687,0.8886719 -1.093747,1.8457032 -0.512696,0.9570312 -1.09375,1.8798828 -0.581055,0.9228516 -1.401367,1.6748047 0.170898,0.5126953 -0.102539,0.6835937 -0.273438,0.1708985 -0.683594,0.3417969 -0.649414,-0.6494141 -0.751953,-1.3671875 -0.136719,-0.6835937 0.03418,-1.4355469 0.170899,-0.7519531 0.512696,-1.4697265 0.307617,-0.7519532 0.581054,-1.4355469 0.170899,-0.4101563 0.273438,-0.7861328 0.06836,-0.3759766 0.136719,-0.8203129 0.06836,-0.273437 0.136718,-0.512695 0.102539,-0.273437 0.170899,-0.546875 0.136719,-0.581055 0.239258,-1.09375 0.136718,-0.546875 0.205078,-1.12793 0.341797,-2.016601 0.649414,-4.033203 0.341797,-2.050781 1.127929,-3.930664 0.136719,-1.811523 0.888667,-3.315429 0.75196,-1.503907 1.74317,-2.973633 -0.13672,-0.375977 0.0342,-0.820313 0.20508,-0.478515 0.51269,-0.922851 0.3418,-0.478516 0.6836,-0.888672 0.37597,-0.444336 0.58105,-0.751953 -0.41015,-0.546875 -0.13672,-0.922852 0.30762,-0.375976 0.78614,-0.751953 0.47851,-0.375977 0.85449,-0.786133 0.41015,-0.410156 0.20508,-0.991211 0.20507,-0.444336 0.68359,-0.683594 0.47852,-0.239257 0.99121,-0.444335 0.5127,-0.205079 0.92285,-0.444336 0.41016,-0.273438 0.47852,-0.751954 0.88867,-0.03418 1.5039,0.307618 0.61524,0.307617 1.12793,0.991211 -0.0342,0.239257 0,0.581054 0.0342,0.307617 0.0342,0.649414 0,0.307618 -0.0684,0.615235 -0.0342,0.273437 -0.23925,0.478515 0.27343,0.205078 0.20507,0.546875 -0.0342,0.307618 -0.20507,0.649414 -0.13672,0.341797 -0.30762,0.683594 -0.1709,0.341797 -0.1709,0.615235 -0.0342,0.957031 -0.51269,1.948242 -0.44434,0.957031 -1.09375,1.640625 -0.41016,1.708984 -1.05957,3.315429 -0.64942,1.572266 -1.81153,2.939454 0.13672,0.307617 -0.0684,0.546875 -0.1709,0.205078 -0.41015,0.444335 -0.20508,0.205079 -0.30762,0.410157 -0.0684,0.205078 0.27344,0.444336 0.99121,-1.538086 2.49511,-2.358399 1.53809,-0.820312 3.24707,-1.298828 0.23926,0.239258 0.47852,0.341797 0.27344,0.06836 0.54687,0.170898 0.20508,-0.410156 0.47852,-0.410156 0.27344,0 0.54688,0.205078 0.27343,0.170899 0.54687,0.410157 0.30762,0.239257 0.54688,0.307617 0.51269,0.375976 0.64941,0.888672 0.13672,0.512695 0.13672,1.09375 0,0.546875 0,1.127929 0,0.581055 0.23926,1.059571 -0.61524,1.230468 -1.57227,2.290039 -0.92285,1.05957 -1.81152,2.15332 l -0.27344,-0.239258 q -0.95703,0.922852 -2.22168,1.674805 -1.23047,0.717773 -2.46094,1.196289 -0.47851,-0.239258 -0.88867,-0.410156 -0.41016,-0.205079 -0.99121,-0.102539 -0.78613,0.581054 -0.95703,1.5380855 -0.1709,0.9570312 0.20508,1.8457031 0.23925,0.5810547 0.58105,0.7177735 0.3418,0.1367187 0.71777,0.1367187 0.41016,-0.03418 0.78614,-0.03418 0.41015,-0.03418 0.78613,0.2392578 l 0.27344,-0.2392578 q 0.23926,0.3076172 0.44433,0.2734375 0.23926,-0.03418 0.47852,-0.1367187 0.23926,-0.1367188 0.44434,-0.1708985 0.23925,-0.068359 0.44433,0.2734375 0.3418,-0.4443359 0.85449,-0.4785156 0.54688,-0.03418 1.05957,0 0.54688,0 1.02539,-0.102539 0.47852,-0.1025391 0.75196,-0.7177735 0.51269,0.1025391 0.78613,-0.1025391 0.30762,-0.2050781 0.54688,-0.4443359 0.27343,-0.2734375 0.51269,-0.5126953 0.27344,-0.2392578 0.75195,-0.2392578 0.54688,-0.3759766 1.02539,-0.8203124 0.47852,-0.478515 0.92286,-0.922851 0.47851,-0.478516 0.92285,-0.922852 0.47851,-0.444336 1.05957,-0.751953 0.34179,-0.03418 0.61523,-0.341797 0.27344,-0.307617 0.54688,-0.615234 0.30761,-0.307618 0.64941,-0.512696 0.3418,-0.205078 0.78613,-0.06836 z m -15.34668,-18.901367 q -0.17089,0.205078 -0.44433,0.581055 -0.23926,0.375976 -0.44434,0.820312 -0.20508,0.410156 -0.34179,0.854492 -0.10254,0.410156 0,0.683594 -0.23926,0.170898 -0.58106,0.581055 -0.30762,0.375976 -0.58105,0.854492 -0.27344,0.444336 -0.47852,0.922851 -0.1709,0.444336 -0.10254,0.751954 -0.54687,0.239257 -0.61523,0.683593 -0.0684,0.410157 -0.10254,0.854492 0,0.410157 -0.1709,0.786133 -0.13672,0.341797 -0.85449,0.444336 l 0.41015,0.649414 q 0.0342,0.273438 0,0.410157 -0.0342,0.102539 -0.13672,0.205078 -0.10253,0.06836 -0.23925,0.170898 -0.10254,0.06836 -0.20508,0.239258 0.3418,0.273437 0.1709,0.478516 -0.13672,0.205078 -0.41016,0.444335 -0.23926,0.239258 -0.41016,0.581055 -0.17089,0.341797 0.13672,0.854492 -0.58105,0.512696 -0.85449,1.435547 -0.23926,0.888672 -0.37598,1.948242 -0.13671,1.025391 -0.23925,2.084961 -0.10254,1.059571 -0.3418,1.914063 1.29883,-2.631836 2.7002,-5.126953 1.40136,-2.495117 2.59765,-5.161133 -0.1709,-0.581055 0.10254,-0.991211 0.27344,-0.444336 0.61524,-0.820313 0.34179,-0.410156 0.58105,-0.751953 0.23926,-0.375976 0,-0.820312 0.1709,-0.170899 0.3418,-0.341797 0.20507,-0.205078 0.47851,-0.170898 -0.0684,-0.307618 0.0342,-0.751954 0.13672,-0.478515 0.3418,-0.922851 0.20508,-0.478516 0.44433,-0.854492 0.27344,-0.410157 0.54688,-0.581055 -0.10254,-0.444336 0.1709,-0.957031 0.27344,-0.546875 0.51269,-1.059571 0.23926,-0.512695 0.27344,-0.991211 0.0342,-0.478515 -0.51269,-0.820312 z m 5.70801,13.637695 q -0.20508,-0.273437 -0.41015,-0.512695 -0.20508,-0.273438 -0.41016,-0.546875 -0.37598,-0.444336 -0.58106,-0.273438 -0.20507,0.136719 -0.44433,0.444336 -0.20508,0.273438 -0.5127,0.512696 -0.30761,0.205078 -0.82031,-0.136719 -0.78613,0.649414 -1.6748,1.333008 -0.8545,0.683593 -1.67481,1.435547 -0.78613,0.751953 -1.43555,1.640624 -0.61523,0.854493 -0.92285,1.914063 0.3418,0.546875 0.78614,0.683594 0.47851,0.136718 0.92285,0.136718 0.44433,-0.03418 0.82031,-0.102539 0.37598,-0.06836 0.58105,0.03418 0.41016,-0.341797 0.8545,-0.546875 0.47851,-0.205078 0.95703,-0.375976 0.51269,-0.205079 0.95703,-0.410157 0.47852,-0.205078 0.88867,-0.512695 1.12793,-0.820313 1.67481,-2.084961 0.58105,-1.264648 0.44433,-2.631836 z"
             style="font-weight:400;font-size:35px;font-family:'Homemade Apple';letter-spacing:1;fill:#99a93c"
             id="path49" />
          <path
             d="m 143.85547,-13.544922 q -0.1709,1.05957 -0.41016,1.640625 -0.23926,0.546875 -0.61523,0.922852 -0.3418,0.341797 -0.88867,0.683593 -0.54688,0.3076176 -1.29883,0.922852 -0.27344,0.2050781 -0.5127,0.3759766 -0.23926,0.1708984 -0.47851,0.4101562 -0.6836,0.2050781 -1.67481,0.6835938 -0.99121,0.4443359 -2.05078,0.9228515 -1.02539,0.444336 -1.98242,0.7861328 -0.92285,0.3417969 -1.50391,0.2734375 -0.20508,0.2734375 -0.71777,0.3417969 -0.5127,0.068359 -0.78613,0.068359 -0.44434,0 -0.92285,0.068359 -0.44434,0.068359 -0.78614,0.4101562 -0.0684,0.068359 -0.10254,0.068359 0,0.03418 0,0.03418 0.0342,0 0,0 0,0.03418 -0.0684,0.1367187 -0.37597,0.444336 -0.78613,0.4785157 -0.37598,0.03418 -0.75195,-0.1367188 -0.37598,-0.1367187 -0.78613,-0.3759766 -0.37598,-0.2392578 -0.78614,-0.3417968 -0.37597,-0.1367188 -0.78613,-0.03418 -0.41016,0.068359 -0.82031,0.546875 -0.23926,-0.6152344 -0.75196,-0.7177735 -0.51269,-0.102539 -1.05957,-0.102539 -0.51269,-0.03418 -0.99121,-0.1025391 -0.47851,-0.102539 -0.64941,-0.649414 v -0.03418 l -0.71777,-0.6152344 -0.10254,0.1025391 q -0.1709,0.1708984 -0.27344,0.3759765 -0.10254,0.2050781 -0.23926,0.3759766 -0.27344,0.4101562 -0.58105,0.8203125 -0.30762,0.3759765 -0.6836,0.649414 -0.41015,0.3076172 -0.85449,0.444336 -0.44434,0.1708984 -0.95703,0.102539 0,-0.8203125 0.47851,-1.5039062 0.44434,-0.6835938 0.88868,-1.3330078 0.41015,-0.6835938 0.54687,-1.3671875 0.10254,-0.7177735 -0.58105,-1.5039063 -0.0342,-0.4785156 -0.41016,-0.9228506 -0.41016,-0.478517 -0.75195,-0.922853 -0.3418,-0.478516 -0.37598,-0.922852 -0.0684,-0.444336 0.58106,-0.888671 -0.30762,-0.06836 -0.41016,-0.239258 0,-0.170899 0.10254,-0.341797 0.0684,-0.205078 0.13672,-0.375977 0.20508,0 0.44433,-0.06836 0.20508,-0.102539 0.41016,-0.136719 0.1709,-0.06836 0.3418,0 0.13672,0.03418 0.27343,0.307617 0.10254,0.205078 0.1709,0.444336 0.0684,0.239258 0.1709,0.478517 0.27344,0.683593 0.68359,1.298828 0.41016,0.581054 0.92286,1.09375 l 0.10254,0.102539 q 0,-0.03418 0.13671,-0.170898 0.13672,-0.136719 0.30762,-0.273438 0.1709,-0.170898 0.30762,-0.307617 0.13672,-0.136719 0.20508,-0.205078 0.41015,-0.375978 0.78613,-0.717775 0.37598,-0.341796 0.64941,-0.683593 0.30762,-0.375977 0.44434,-0.820313 0.1709,-0.478515 0.1709,-1.09375 1.05957,-0.717773 2.08496,-1.572265 1.02539,-0.888672 2.08496,-1.708984 1.05957,-0.820313 2.1875,-1.469727 1.16211,-0.649414 2.49512,-0.888672 0.30761,0.546875 0.71777,0.854493 0.41016,0.307617 0.78613,0.615234 0.41016,0.307618 0.71778,0.751953 0.34179,0.444336 0.47851,1.230469 0.27344,1.469726 0,2.768554 -0.23926,1.298828 -0.71777,2.700195 -0.27344,0.820313 -0.5127,1.674805 -0.20508,0.8544926 -0.20508,1.7431644 l 0.23926,0.068359 q 0.30762,-0.4101562 0.6836,-0.5126953 0.41015,-0.1025391 0.82031,-0.1367188 0.41016,-0.03418 0.78613,-0.102539 0.41016,-0.1025391 0.6836,-0.5126953 0.44433,0.1708984 0.82031,0.03418 0.41015,-0.1708985 0.78613,-0.444336 0.37598,-0.273438 0.75195,-0.581055 0.37598,-0.307617 0.78614,-0.410156 l -0.0342,-0.273438 q 0.61523,-0.410156 1.05957,-0.581055 0.44433,-0.170898 0.82031,-0.341796 0.37598,-0.170899 0.75195,-0.478516 0.37598,-0.307617 0.8545,-1.025391 0.17089,-0.06836 0.37597,-0.03418 0.23926,0 0.3418,0.170898 z m -11.92871,-3.383789 q -0.1709,-0.06836 -0.37598,-0.102539 -0.1709,-0.06836 -0.3418,-0.170898 -0.30761,-0.205079 -0.58105,-0.307618 -0.27344,-0.102539 -0.64941,0.06836 v 0.06836 h -0.0342 q -1.74317,1.333008 -3.24707,2.939453 -1.46973,1.572266 -3.11036,3.076172 l -0.30761,-0.307617 q -0.23926,0.307617 -0.27344,0.649414 0,0.341797 0,0.649414 0,0.307617 -0.0684,0.5810547 -0.0684,0.2734375 -0.41016,0.5126954 l -0.10254,0.068359 q 0.13672,0.4785157 0.37598,0.6152344 0.27344,0.1025391 0.54688,0.1025391 0.30761,-0.03418 0.58105,-0.068359 0.27344,-0.03418 0.44434,0.1025391 0.10254,0.068359 0.13672,0.2050781 0.0342,0.1367187 0.0342,0.2392578 0.17089,0 0.34179,0 0.20508,0 0.41016,-0.03418 0.37598,-0.068359 0.78613,0 0.44434,0.03418 0.5127,0.5126953 0.68359,-0.2734375 1.40136,-0.5810547 0.71778,-0.3076172 1.16211,-0.9912109 l 0.23926,0.2392578 q 0.0342,0 0.0342,0 0.0342,-0.03418 0.0684,-0.03418 0.85449,-0.5126953 1.33301,-1.5039071 0.51269,-0.991211 0.75195,-2.15332 0.23926,-1.162109 0.27344,-2.324219 0.0684,-1.162109 0.0684,-2.050781 z"
             style="font-weight:400;font-size:35px;font-family:'Homemade Apple';letter-spacing:1;fill:#99a93c"
             id="path51" />
          <path
             d="m 166.0127,-29.711914 q -0.47852,0.512695 -1.05958,0.546875 -0.58105,0 -1.1621,-0.102539 -0.54688,-0.102539 -1.09375,-0.06836 -0.5127,0 -0.88868,0.546875 -0.54687,-0.136719 -1.12793,-0.03418 -0.58105,0.06836 -1.19629,0.239258 -0.61523,0.136718 -1.23046,0.273437 -0.61524,0.136719 -1.23047,0.102539 l -0.58106,-0.581054 q -0.23926,0.375976 -0.68359,0.478515 -0.41016,0.06836 -0.82031,-0.205078 -0.71778,0.478516 -1.43555,0.444336 -0.71777,-0.03418 -1.40137,-0.03418 -0.68359,-0.03418 -1.29883,0.273438 -0.58105,0.273437 -0.99121,1.401367 -0.30761,0.786133 -0.58105,1.606445 -0.27344,0.786133 -0.54688,1.572266 -0.75195,2.050781 -1.53808,4.067383 -0.75196,1.982422 -1.70899,3.930664 -0.0684,1.538086 0.0684,3.110351 0.13672,1.572266 0.30762,3.1103519 -0.13672,0.4101562 -0.10254,0.8544922 0.0684,0.4443359 0.23926,0.8886718 0.1709,0.444336 0.41015,0.8544922 0.23926,0.3759766 0.5127,0.6835938 l 0.61523,-0.5810547 0.8545,1.1962891 q 0.34179,-0.444336 0.78613,-0.9228516 0.47852,-0.5126953 0.99121,-0.9228516 0.5127,-0.4443359 1.05957,-0.7177734 0.58106,-0.3076172 1.16211,-0.4101563 0.23926,-0.2392578 0.44434,-0.5126953 0.20507,-0.2734375 0.44433,-0.4443359 0.23926,-0.2050781 0.5127,-0.2734375 0.30761,-0.1025391 0.71777,0.03418 1.09375,-0.6152344 1.94824,-1.5380867 0.8545,-0.957031 1.70899,-1.879882 0.85449,-0.957032 1.77734,-1.743164 0.95703,-0.786133 2.22168,-1.09375 -0.82031,1.982421 -2.08496,3.862304 -1.26465,1.8457037 -2.83691,3.3154302 -0.41016,0.4785157 -1.02539,0.8544922 -0.27344,0.1708985 -0.58106,0.3759766 -0.30762,0.1708984 -0.58105,0.3417969 -0.92286,0.6152343 -1.77735,1.3330078 -0.85449,0.6835937 -1.64062,1.5380859 -0.10254,-0.2050781 -0.27344,-0.2734375 -0.1709,-0.068359 -0.41016,-0.068359 -0.20507,0 -0.44433,0.03418 -0.20508,0.03418 -0.37598,0 -0.64941,0.4785156 -1.70898,0.7519531 -1.02539,0.3076172 -1.84571,0.1367188 -0.23925,-0.068359 -0.64941,-0.2734375 -0.41016,-0.1708984 -0.61524,-0.3076172 -1.333,-0.8886719 -2.0166,-2.1875 -0.64941,-1.3330078 -0.71777,-2.9052734 l -0.27344,-0.2734375 q 0.44434,-0.4101563 0.54688,-0.8203124 0.13672,-0.410156 0.0684,-0.820313 -0.0342,-0.444336 -0.1709,-0.888672 -0.10254,-0.478515 -0.13672,-0.957031 -0.0342,-0.307617 0,-0.512695 0.0684,-0.205078 0.13672,-0.478516 0.27344,-1.09375 0.51269,-2.11914 0.23926,-1.059571 0.5127,-2.119141 0.68359,-2.597656 1.57226,-5.126953 0.92286,-2.563477 1.91407,-5.058594 -0.54688,-0.205078 -1.09375,-0.239258 -0.54688,-0.06836 -1.12793,-0.06836 -0.54688,0 -1.12793,-0.03418 -0.54688,-0.03418 -1.09375,-0.239257 -0.23926,-0.10254 -0.23926,-0.10254 0,-0.03418 -0.27344,-0.03418 -0.1709,0 -0.47851,0.06836 -0.30762,0.03418 -0.61524,0.03418 -0.30761,0 -0.54687,-0.06836 -0.27344,-0.06836 -0.30762,-0.307617 v -0.341797 q 0.0342,-0.546875 0.23926,-0.717773 0.20508,-0.205078 0.51269,-0.239258 0.30762,-0.06836 0.6836,-0.06836 0.37597,-0.03418 0.71777,-0.239258 0.95703,0.205078 1.81152,0.307617 0.8545,0.06836 1.64063,-0.03418 0.82031,-0.102539 1.57226,-0.444335 0.78614,-0.341797 1.53809,-1.025391 0.54688,-1.05957 0.82031,-2.255859 0.27344,-1.230469 0.61524,-2.392579 0.37597,-1.196289 0.95703,-2.1875 0.58105,-1.02539 1.77734,-1.708984 0.54688,-0.06836 0.95703,0.136719 0.41016,0.205078 0.82032,0.444336 -0.1709,0.478515 -0.27344,0.991211 -0.10254,0.512695 -0.23926,1.02539 -0.10254,0.512696 -0.27344,0.991211 -0.1709,0.478516 -0.51269,0.888672 0.44433,0.170899 0.51269,0.410156 0.0684,0.239258 -0.0684,0.512696 -0.13671,0.273437 -0.34179,0.581054 -0.20508,0.307618 -0.23926,0.546875 -0.37598,0.03418 -0.64941,0.478516 -0.23926,0.444336 -0.5127,0.683594 -0.27344,0.581054 0.10254,0.991211 0.37598,0.410156 0.68359,0.786132 0.30762,0.10254 0.61524,0.03418 0.30761,-0.102539 0.54687,-0.205078 0.27344,-0.102539 0.5127,-0.102539 0.23926,0 0.44433,0.273437 0.3418,-0.375976 0.6836,-0.307617 0.34179,0.03418 0.68359,0.170899 0.3418,0.102539 0.68359,0.102539 0.3418,-0.03418 0.64942,-0.546875 0.41015,-0.205078 0.75195,-0.102539 0.37598,0.102539 0.6836,0.273437 0.30761,0.136719 0.58105,0.239258 0.30762,0.06836 0.61523,-0.136719 0.5127,0.06836 1.12793,0.03418 0.64942,-0.03418 1.26465,-0.136719 0.64942,-0.102539 1.26465,-0.239258 0.64942,-0.170898 1.16211,-0.273437 0.5127,0.307617 0.61523,0.546875 0.10254,0.239258 0.0342,0.478516 -0.0342,0.239257 -0.13671,0.546875 -0.0684,0.273437 0.0684,0.717773 z"
             style="font-weight:400;font-size:35px;font-family:'Homemade Apple';letter-spacing:1;fill:#99a93c"
             id="path53" />
          <path
             d="m 182.05176,-15.732422 q 0.13672,0.512695 -0.10254,0.888672 -0.23926,0.341797 -0.64942,0.615234 -0.37597,0.273438 -0.85449,0.512696 -0.44433,0.205078 -0.75195,0.478515 -1.53809,0.341797 -2.80274,0.512696 -1.23046,0.136718 -2.73437,0.375976 -0.44434,0.06836 -0.85449,0 -0.37598,-0.102539 -0.78614,-0.06836 -0.23925,0 -0.44433,0 -0.20508,-0.03418 -0.41016,0 -0.78613,0.06836 -1.02539,0.546875 -0.23926,0.444336 -0.41015,1.05957 -0.13672,0.581055 -0.37598,1.1279298 -0.20508,0.5126953 -0.92285,0.7177734 -0.0684,0.1708985 0.0342,0.3076172 0.13672,0.1367188 0.20508,0.2392578 -0.58106,0.1708985 -0.78614,0.6152344 -0.1709,0.444336 -0.30761,0.8886719 -0.13672,0.4443359 -0.41016,0.7519531 -0.23926,0.3076172 -0.95703,0.2050782 -1.05957,1.1279296 -2.49512,1.8115234 -1.43555,0.7177734 -2.97363,0.9228515 -0.27344,-0.1367187 -0.54688,-0.3417968 -0.23925,-0.2050782 -0.51269,-0.3759766 -0.23926,-0.1708984 -0.54688,-0.2734375 -0.27343,-0.068359 -0.64941,0 -0.0342,-0.7177734 -0.27344,-1.3330078 -0.27344,-0.6152344 -0.68359,-1.1621094 -0.0684,-0.6152343 0.1709,-1.1279297 0.20507,-0.546875 0.44433,-1.0595703 0.23926,-0.5126953 0.41016,-1.0253906 0.13672,-0.546875 -0.0684,-1.230469 0.3418,-0.205078 0.44433,-0.478515 0.13672,-0.273438 0.1709,-0.546875 0.0684,-0.307618 0.1709,-0.546875 0.10254,-0.273438 0.47852,-0.444336 -0.27344,-0.820313 0.0684,-1.196289 0.37597,-0.410157 0.88867,-0.717774 0.51269,-0.307617 0.95703,-0.683594 0.44434,-0.375976 0.3418,-1.127929 0.20507,-0.205078 0.47851,-0.341797 0.27344,-0.136719 0.5127,-0.239258 0.27343,-0.136719 0.51269,-0.273437 0.23926,-0.136719 0.44434,-0.375977 -0.23926,-0.170898 -0.23926,-0.341797 0.0342,-0.170898 0.10254,-0.341797 0.0684,-0.205078 0.13672,-0.410156 0.10254,-0.205078 0,-0.410156 0.92285,0.136719 1.60644,-0.239258 0.71778,-0.410156 1.33301,-0.820313 0.64942,-0.410156 1.29883,-0.581054 0.64941,-0.170899 1.50391,0.410156 0.0684,0.239258 0.20507,0.717773 0.1709,0.444336 0.30762,0.922852 0.1709,0.478516 0.30762,0.922852 0.13672,0.444336 0.1709,0.649414 0,0.170898 0,0.546875 0,0.375976 0,0.820312 0,0.410156 0,0.786133 0,0.375976 0,0.581055 0.99121,0.581054 1.98242,0.717773 0.99121,0.102539 1.98242,-0.478516 0.37598,0.341797 0.71777,0.205079 0.3418,-0.170899 0.64942,-0.375977 0.3418,-0.205078 0.68359,-0.205078 0.3418,-0.03418 0.6836,0.546875 0.47851,-0.444336 0.99121,-0.546875 0.51269,-0.136719 1.05957,-0.136719 0.54687,-0.03418 1.05957,-0.102539 0.54687,-0.06836 1.05957,-0.444336 z m -13.125,0.581055 q 0,-0.512696 0.1709,-1.09375 0.17089,-0.581055 0.27343,-1.12793 0.10254,-0.581055 -0.0342,-1.09375 -0.10254,-0.512695 -0.64941,-0.922851 -0.37598,0.205078 -0.61523,0.581054 -0.23926,0.341797 -0.47852,0.717774 -0.23926,0.341797 -0.58105,0.581054 -0.30762,0.239258 -0.82032,0.136719 -0.1709,0.410156 0,0.683594 0.1709,0.239258 0.41016,0.478516 0.23926,0.205078 0.44433,0.444335 0.23926,0.239258 0.1709,0.615235 0.13672,0.102539 0.37598,0.205078 0.23926,0.06836 0.47852,0.102539 0.27343,0 0.51269,-0.06836 0.23926,-0.06836 0.3418,-0.239258 z m -0.23926,2.734375 q -0.68359,0 -1.19629,-0.307617 -0.47851,-0.341797 -0.99121,-0.751954 -0.47852,-0.410156 -1.02539,-0.751953 -0.5127,-0.375976 -1.26465,-0.444336 -0.30762,0.410157 -0.71777,0.786133 -0.41016,0.341797 -0.71778,0.751953 -0.30761,0.410157 -0.44433,0.888672 -0.10254,0.478516 0.1709,1.09375 -0.78614,0.375977 -1.05957,1.09375 -0.27344,0.683594 -0.37598,1.5039065 -0.0684,0.8203125 -0.13672,1.640625 -0.0684,0.8203125 -0.44434,1.4697266 l 0.75196,-0.5126953 q 0.13672,0.068359 0.20508,0.2050781 0.10254,0.1367187 0.0342,0.3076172 0.27343,-0.2734375 0.61523,-0.4101563 0.3418,-0.1708984 0.68359,-0.2392578 0.37598,-0.1025391 0.71778,-0.1708984 0.37597,-0.068359 0.71777,-0.2050782 0.85449,0.4785157 1.23047,0.2050782 0.37598,-0.2734375 0.61523,-0.8203125 0.23926,-0.546875 0.5127,-1.1279297 0.27344,-0.6152344 0.88867,-0.7519532 l -0.23926,-0.2392578 q 0.58106,-0.7177734 1.02539,-1.4697264 0.47852,-0.786133 0.44434,-1.743164 z"
             style="font-weight:400;font-size:35px;font-family:'Homemade Apple';letter-spacing:1;fill:#99a93c"
             id="path55" />
          <path
             d="m 204.48242,-14.570313 q -0.30762,0.854493 -0.95703,1.572266 -0.61523,0.717774 -1.33301,1.401367 -0.71777,0.683594 -1.43554,1.367188 -0.6836,0.6494139 -1.16211,1.3671873 -0.30762,-0.1025391 -0.54688,0.068359 -0.20508,0.1708984 -0.37598,0.4443359 -0.37597,0.1367188 -0.78613,0.3076172 -0.37597,0.1367188 -0.75195,0.3417969 -0.3418,0.2050781 -0.64942,0.4785156 -0.27343,0.2734375 -0.41015,0.6835938 -0.64942,0.03418 -1.12793,0.2734375 -0.47852,0.2050781 -0.92285,0.4443359 -0.44434,0.2392578 -0.95703,0.4101563 -0.5127,0.1367187 -1.23047,0.03418 -0.13672,0.5126954 -0.37598,0.4785157 -0.20508,0 -0.44434,-0.1025391 -0.23925,-0.1367187 -0.47851,-0.1367187 -0.23926,-0.03418 -0.37598,0.4785156 -0.23926,0 -0.51269,-0.03418 -0.23926,0 -0.47852,0 -0.20508,0.03418 -0.41015,0.1367187 -0.1709,0.1025391 -0.27344,0.3759766 -0.99121,0 -2.08496,0.1367188 -1.09375,0.1367187 -2.1875,0.1367187 -1.05957,0 -2.08496,-0.2734375 -0.99121,-0.2392578 -1.77735,-1.0253906 -0.27344,-0.2734375 -0.44433,-0.546875 -0.1709,-0.2734375 -0.37598,-0.6152344 -0.10254,-0.1708984 -0.20508,-0.3076172 -0.10254,-0.1708984 -0.20508,-0.3759765 -0.27343,-0.6152344 -0.30761,-1.2646485 -0.0342,-0.6494141 0,-1.2988281 0,-0.6494139 0,-1.2646479 0,-0.649414 -0.23926,-1.264649 0,-0.581054 0.27344,-1.02539 0.23925,-0.478516 0.54687,-0.922852 0.30762,-0.444336 0.58106,-0.888672 0.27343,-0.478515 0.30761,-1.02539 -0.23925,-0.581055 0.0342,-1.12793 0.27344,-0.546875 0.54688,-1.025391 0.10254,-0.170898 0.1709,-0.341797 0.10254,-0.205078 0.20507,-0.410156 0.10254,-0.205078 0.27344,-0.410156 0.1709,-0.205078 0.30762,-0.375977 0.44433,-0.615234 0.88867,-1.196289 0.44434,-0.581054 0.88867,-1.196289 0.30762,-0.410156 0.58106,-0.820312 0.30761,-0.410156 0.58105,-0.854492 0.13672,-0.205079 0.27344,-0.444336 0.13672,-0.273438 0.27344,-0.444336 0.1709,-0.205078 0.58105,-0.444336 0.41016,-0.273438 0.64942,-0.410156 0.68359,-0.341797 1.46972,-0.478516 0.78614,-0.170899 1.46973,-0.03418 0.68359,0.136719 1.19629,0.649414 0.54687,0.478516 0.71777,1.401367 0.0684,0.444336 0.0342,0.888672 0,0.410157 0.0342,0.820313 0.0684,0.410156 0.23926,0.786133 0.1709,0.341797 0.61523,0.649414 -0.37597,0.581054 -0.64941,1.196289 -0.23926,0.615234 -0.54688,1.230469 0.3418,0.102539 0.27344,0.410156 -0.0342,0.273437 0,0.512695 -0.47851,0.375977 -0.64941,0.922852 -0.1709,0.546875 -0.27344,1.127929 -0.10254,0.546875 -0.27344,1.059571 -0.13672,0.478515 -0.54687,0.786132 0.20508,1.09375 -0.6836,1.435547 -0.61523,0.239258 -0.82031,0.102539 -0.20508,-0.170898 -0.30762,-0.444336 -0.0684,-0.307617 -0.20507,-0.581054 -0.13672,-0.273438 -0.58106,-0.273438 0.0684,-0.410156 0.10254,-0.820312 0.0684,-0.444336 0.1709,-0.854492 0.10254,-0.410157 0.30762,-0.786133 0.20507,-0.375977 0.58105,-0.683594 -0.30762,-0.170898 -0.23926,-0.512695 0.0684,-0.375977 0,-0.683594 0.23926,-0.683594 0.71778,-1.435547 0.47851,-0.751953 0.85449,-1.503906 0.37597,-0.786133 0.47851,-1.572266 0.10254,-0.786133 -0.37597,-1.538086 -0.13672,-0.205078 -0.41016,-0.341797 -0.23926,-0.136718 -0.47851,-0.136718 -0.23926,0 -0.41016,0.170898 -0.1709,0.170899 -0.13672,0.546875 l 0.27344,0.239258 q -0.64942,0.205078 -1.16211,0.683594 -0.47852,0.478515 -0.92285,1.05957 -0.44434,0.546875 -0.88867,1.12793 -0.41016,0.581054 -0.88868,0.991211 -0.23925,0.957031 -0.75195,1.777343 -0.47852,0.820313 -0.95703,1.640625 -0.27344,0.512696 -0.41016,0.854492 -0.10254,0.341797 -0.30761,0.820313 -0.0684,0.170898 -0.1709,0.341797 -0.0684,0.136719 -0.13672,0.307617 -0.20508,0.751953 -0.37598,1.469727 -0.13672,0.717773 -0.78613,1.230468 0.10254,0.273438 0.1709,0.512696 0.10254,0.239257 0.34179,0.478515 -0.37597,0.2050781 -0.44433,0.5126953 -0.0342,0.2734375 0.0342,0.6152344 0.10254,0.3076172 0.23926,0.6494141 0.17089,0.3076172 0.17089,0.6152343 0.41016,0.03418 0.75196,0.3076172 0.34179,0.2734375 0.68359,0.546875 0.37598,0.2734375 0.71777,0.444336 0.3418,0.1367187 0.75196,-0.1025391 0.27344,0.068359 0.51269,0.03418 0.23926,-0.03418 0.47852,-0.03418 0.23926,-0.03418 0.44433,0.068359 0.23926,0.102539 0.47852,0.4101562 0.23926,-0.5126953 0.64941,-0.6152343 0.41016,-0.1025391 0.8545,-0.1025391 0.47851,0 0.88867,-0.03418 0.44433,-0.03418 0.75195,-0.4101562 0.41016,0.3417968 0.71777,0.2734375 0.3418,-0.068359 0.61524,-0.3076172 0.30762,-0.2392578 0.61523,-0.4785157 0.30762,-0.2392578 0.6836,-0.2392578 0.82031,0 1.43554,-0.2392578 0.61524,-0.2392578 1.19629,-0.546875 0.58106,-0.3417969 1.16211,-0.6494141 0.61524,-0.3076171 1.40137,-0.4443359 0.3418,-0.5126958 0.78613,-0.7177738 0.47852,-0.239257 0.95703,-0.410156 0.5127,-0.205078 0.95704,-0.478516 0.47851,-0.307617 0.85449,-0.957031 0.68359,0.03418 1.12793,-0.375976 0.44433,-0.444336 0.85449,-0.922852 0.41016,-0.512695 0.82031,-0.854492 0.44434,-0.375977 1.09375,-0.170899 z"
             style="font-weight:400;font-size:35px;font-family:'Homemade Apple';letter-spacing:1;fill:#99a93c"
             id="path57" />
          <path
             d="m 226.53711,-14.296875 q -0.0684,0.922852 -0.5127,1.640625 -0.41015,0.717773 -1.02539,1.333008 -0.61523,0.581054 -1.333,1.127929 -0.71778,0.5126958 -1.29883,1.0937505 0.10254,0.7177734 -0.20508,0.8544922 -0.30762,0.1367187 -0.75195,0.1708984 -0.41016,0 -0.8545,0.1025391 -0.41015,0.068359 -0.54687,0.6835937 -0.47852,0 -0.78613,0.3076172 -0.30762,0.3076172 -0.61524,0.6494141 -0.30762,0.3076172 -0.71777,0.546875 -0.37598,0.2050781 -0.99121,0.1025391 -0.1709,0.3417968 -0.44434,0.4443359 -0.27344,0.1025391 -0.58105,0.1367187 -0.30762,0.03418 -0.61524,0.1025391 -0.27344,0.068359 -0.47851,0.3417969 l -0.5127,-0.7519531 q -1.46973,0.649414 -2.87109,0.546875 -1.36719,-0.1025391 -2.90528,-0.3076172 -0.20507,-0.3759766 -0.47851,-0.6835938 -0.23926,-0.3076172 -0.5127,-0.6152344 -0.23925,-0.3076171 -0.47851,-0.6152343 -0.20508,-0.3076172 -0.3418,-0.7177735 l 0.5127,-0.5126953 -0.5127,-0.5126953 q 0,-0.2734375 0.0342,-0.6152344 0.0342,-0.3417969 0,-0.6494136 0,-0.341797 -0.13672,-0.615235 -0.10254,-0.307617 -0.44433,-0.478515 -0.78614,0.751953 -1.36719,1.6748042 -0.54688,0.8886719 -1.09375,1.8457032 -0.5127,0.9570312 -1.09375,1.8798828 -0.58106,0.9228516 -1.40137,1.6748047 0.1709,0.5126953 -0.10254,0.6835937 -0.27344,0.1708985 -0.68359,0.3417969 -0.64942,-0.6494141 -0.75195,-1.3671875 -0.13672,-0.6835937 0.0342,-1.4355469 0.1709,-0.7519531 0.5127,-1.4697265 0.30762,-0.7519532 0.58105,-1.4355469 0.1709,-0.4101563 0.27344,-0.7861328 0.0684,-0.3759766 0.13672,-0.8203129 0.0684,-0.273437 0.13672,-0.512695 0.10254,-0.273437 0.1709,-0.546875 0.13672,-0.581055 0.23926,-1.09375 0.13671,-0.546875 0.20507,-1.12793 0.3418,-2.016601 0.64942,-4.033203 0.3418,-2.050781 1.12793,-3.930664 0.13672,-1.811523 0.88867,-3.315429 0.75195,-1.503907 1.74316,-2.973633 -0.13671,-0.375977 0.0342,-0.820313 0.20508,-0.478515 0.5127,-0.922851 0.3418,-0.478516 0.68359,-0.888672 0.37598,-0.444336 0.58106,-0.751953 -0.41016,-0.546875 -0.13672,-0.922852 0.30762,-0.375976 0.78613,-0.751953 0.47852,-0.375977 0.85449,-0.786133 0.41016,-0.410156 0.20508,-0.991211 0.20508,-0.444336 0.6836,-0.683594 0.47851,-0.239257 0.99121,-0.444335 0.51269,-0.205079 0.92285,-0.444336 0.41015,-0.273438 0.47851,-0.751954 0.88868,-0.03418 1.50391,0.307618 0.61523,0.307617 1.12793,0.991211 -0.0342,0.239257 0,0.581054 0.0342,0.307617 0.0342,0.649414 0,0.307618 -0.0684,0.615235 -0.0342,0.273437 -0.23926,0.478515 0.27344,0.205078 0.20508,0.546875 -0.0342,0.307618 -0.20508,0.649414 -0.13672,0.341797 -0.30762,0.683594 -0.17089,0.341797 -0.17089,0.615235 -0.0342,0.957031 -0.5127,1.948242 -0.44433,0.957031 -1.09375,1.640625 -0.41016,1.708984 -1.05957,3.315429 -0.64941,1.572266 -1.81152,2.939454 0.13672,0.307617 -0.0684,0.546875 -0.1709,0.205078 -0.41016,0.444335 -0.20508,0.205079 -0.30762,0.410157 -0.0684,0.205078 0.27344,0.444336 0.99121,-1.538086 2.49512,-2.358399 1.53809,-0.820312 3.24707,-1.298828 0.23926,0.239258 0.47852,0.341797 0.27343,0.06836 0.54687,0.170898 0.20508,-0.410156 0.47852,-0.410156 0.27343,0 0.54687,0.205078 0.27344,0.170899 0.54688,0.410157 0.30761,0.239257 0.54687,0.307617 0.5127,0.375976 0.64941,0.888672 0.13672,0.512695 0.13672,1.09375 0,0.546875 0,1.127929 0,0.581055 0.23926,1.059571 -0.61523,1.230468 -1.57226,2.290039 -0.92286,1.05957 -1.81153,2.15332 l -0.27344,-0.239258 q -0.95703,0.922852 -2.22167,1.674805 -1.23047,0.717773 -2.46094,1.196289 -0.47852,-0.239258 -0.88867,-0.410156 -0.41016,-0.205079 -0.99122,-0.102539 -0.78613,0.581054 -0.95703,1.5380855 -0.17089,0.9570312 0.20508,1.8457031 0.23926,0.5810547 0.58106,0.7177735 0.34179,0.1367187 0.71777,0.1367187 0.41016,-0.03418 0.78613,-0.03418 0.41016,-0.03418 0.78614,0.2392578 l 0.27343,-0.2392578 q 0.23926,0.3076172 0.44434,0.2734375 0.23926,-0.03418 0.47851,-0.1367187 0.23926,-0.1367188 0.44434,-0.1708985 0.23926,-0.068359 0.44434,0.2734375 0.34179,-0.4443359 0.85449,-0.4785156 0.54687,-0.03418 1.05957,0 0.54687,0 1.02539,-0.102539 0.47852,-0.1025391 0.75195,-0.7177735 0.5127,0.1025391 0.78614,-0.1025391 0.30761,-0.2050781 0.54687,-0.4443359 0.27344,-0.2734375 0.5127,-0.5126953 0.27343,-0.2392578 0.75195,-0.2392578 0.54687,-0.3759766 1.02539,-0.8203124 0.47852,-0.478515 0.92285,-0.922851 0.47852,-0.478516 0.92285,-0.922852 0.47852,-0.444336 1.05957,-0.751953 0.3418,-0.03418 0.61524,-0.341797 0.27343,-0.307617 0.54687,-0.615234 0.30762,-0.307618 0.64942,-0.512696 0.34179,-0.205078 0.78613,-0.06836 z m -15.34668,-18.901367 q -0.1709,0.205078 -0.44434,0.581055 -0.23925,0.375976 -0.44433,0.820312 -0.20508,0.410156 -0.3418,0.854492 -0.10254,0.410156 0,0.683594 -0.23926,0.170898 -0.58105,0.581055 -0.30762,0.375976 -0.58106,0.854492 -0.27344,0.444336 -0.47851,0.922851 -0.1709,0.444336 -0.10254,0.751954 -0.54688,0.239257 -0.61524,0.683593 -0.0684,0.410157 -0.10254,0.854492 0,0.410157 -0.1709,0.786133 -0.13671,0.341797 -0.85449,0.444336 l 0.41016,0.649414 q 0.0342,0.273438 0,0.410157 -0.0342,0.102539 -0.13672,0.205078 -0.10254,0.06836 -0.23926,0.170898 -0.10254,0.06836 -0.20508,0.239258 0.3418,0.273437 0.1709,0.478516 -0.13672,0.205078 -0.41015,0.444335 -0.23926,0.239258 -0.41016,0.581055 -0.1709,0.341797 0.13672,0.854492 -0.58106,0.512696 -0.85449,1.435547 -0.23926,0.888672 -0.37598,1.948242 -0.13672,1.025391 -0.23926,2.084961 -0.10254,1.059571 -0.34179,1.914063 1.29882,-2.631836 2.70019,-5.126953 1.40137,-2.495117 2.59766,-5.161133 -0.1709,-0.581055 0.10254,-0.991211 0.27343,-0.444336 0.61523,-0.820313 0.3418,-0.410156 0.58106,-0.751953 0.23925,-0.375976 0,-0.820312 0.17089,-0.170899 0.34179,-0.341797 0.20508,-0.205078 0.47852,-0.170898 -0.0684,-0.307618 0.0342,-0.751954 0.13672,-0.478515 0.34179,-0.922851 0.20508,-0.478516 0.44434,-0.854492 0.27344,-0.410157 0.54688,-0.581055 -0.10254,-0.444336 0.17089,-0.957031 0.27344,-0.546875 0.5127,-1.059571 0.23926,-0.512695 0.27344,-0.991211 0.0342,-0.478515 -0.5127,-0.820312 z m 5.70801,13.637695 q -0.20508,-0.273437 -0.41016,-0.512695 -0.20508,-0.273438 -0.41016,-0.546875 -0.37597,-0.444336 -0.58105,-0.273438 -0.20508,0.136719 -0.44434,0.444336 -0.20507,0.273438 -0.51269,0.512696 -0.30762,0.205078 -0.82031,-0.136719 -0.78614,0.649414 -1.67481,1.333008 -0.85449,0.683593 -1.6748,1.435547 -0.78614,0.751953 -1.43555,1.640624 -0.61523,0.854493 -0.92285,1.914063 0.3418,0.546875 0.78613,0.683594 0.47852,0.136718 0.92285,0.136718 0.44434,-0.03418 0.82032,-0.102539 0.37597,-0.06836 0.58105,0.03418 0.41016,-0.341797 0.85449,-0.546875 0.47852,-0.205078 0.95703,-0.375976 0.5127,-0.205079 0.95703,-0.410157 0.47852,-0.205078 0.88868,-0.512695 1.12793,-0.820313 1.6748,-2.084961 0.58106,-1.264648 0.44434,-2.631836 z"
             style="font-weight:400;font-size:35px;font-family:'Homemade Apple';letter-spacing:1;fill:#99a93c"
             id="path59" />
          <path
             d="m 247.77148,-13.544922 q -0.17089,1.05957 -0.41015,1.640625 -0.23926,0.546875 -0.61524,0.922852 -0.34179,0.341797 -0.88867,0.683593 -0.54687,0.3076176 -1.29883,0.922852 -0.27343,0.2050781 -0.51269,0.3759766 -0.23926,0.1708984 -0.47852,0.4101562 -0.68359,0.2050781 -1.6748,0.6835938 -0.99121,0.4443359 -2.05078,0.9228515 -1.02539,0.444336 -1.98243,0.7861328 -0.92285,0.3417969 -1.5039,0.2734375 -0.20508,0.2734375 -0.71777,0.3417969 -0.5127,0.068359 -0.78614,0.068359 -0.44433,0 -0.92285,0.068359 -0.44434,0.068359 -0.78613,0.4101562 -0.0684,0.068359 -0.10254,0.068359 0,0.03418 0,0.03418 0.0342,0 0,0 0,0.03418 -0.0684,0.1367187 -0.37598,0.444336 -0.78613,0.4785157 -0.37598,0.03418 -0.75196,-0.1367188 -0.37597,-0.1367187 -0.78613,-0.3759766 -0.37598,-0.2392578 -0.78613,-0.3417968 -0.37598,-0.1367188 -0.78613,-0.03418 -0.41016,0.068359 -0.82032,0.546875 -0.23926,-0.6152344 -0.75195,-0.7177735 -0.5127,-0.102539 -1.05957,-0.102539 -0.5127,-0.03418 -0.99121,-0.1025391 -0.47852,-0.102539 -0.64942,-0.649414 v -0.03418 l -0.71777,-0.6152344 -0.10254,0.1025391 q -0.1709,0.1708984 -0.27344,0.3759765 -0.10253,0.2050781 -0.23925,0.3759766 -0.27344,0.4101562 -0.58106,0.8203125 -0.30762,0.3759765 -0.68359,0.649414 -0.41016,0.3076172 -0.85449,0.444336 -0.44434,0.1708984 -0.95704,0.102539 0,-0.8203125 0.47852,-1.5039062 0.44434,-0.6835938 0.88867,-1.3330078 0.41016,-0.6835938 0.54688,-1.3671875 0.10254,-0.7177735 -0.58106,-1.5039063 -0.0342,-0.4785156 -0.41015,-0.9228506 -0.41016,-0.478517 -0.75196,-0.922853 -0.34179,-0.478516 -0.37597,-0.922852 -0.0684,-0.444336 0.58105,-0.888671 -0.30762,-0.06836 -0.41016,-0.239258 0,-0.170899 0.10254,-0.341797 0.0684,-0.205078 0.13672,-0.375977 0.20508,0 0.44434,-0.06836 0.20508,-0.102539 0.41015,-0.136719 0.1709,-0.06836 0.3418,0 0.13672,0.03418 0.27344,0.307617 0.10254,0.205078 0.1709,0.444336 0.0684,0.239258 0.1709,0.478517 0.27343,0.683593 0.68359,1.298828 0.41016,0.581054 0.92285,1.09375 l 0.10254,0.102539 q 0,-0.03418 0.13672,-0.170898 0.13672,-0.136719 0.30762,-0.273438 0.17089,-0.170898 0.30761,-0.307617 0.13672,-0.136719 0.20508,-0.205078 0.41016,-0.375978 0.78613,-0.717775 0.37598,-0.341796 0.64942,-0.683593 0.30762,-0.375977 0.44433,-0.820313 0.1709,-0.478515 0.1709,-1.09375 1.05957,-0.717773 2.08496,-1.572265 1.02539,-0.888672 2.08496,-1.708984 1.05958,-0.820313 2.1875,-1.469727 1.16211,-0.649414 2.49512,-0.888672 0.30762,0.546875 0.71778,0.854493 0.41015,0.307617 0.78613,0.615234 0.41015,0.307618 0.71777,0.751953 0.3418,0.444336 0.47852,1.230469 0.27343,1.469726 0,2.768554 -0.23926,1.298828 -0.71778,2.700195 -0.27343,0.820313 -0.51269,1.674805 -0.20508,0.8544926 -0.20508,1.7431644 l 0.23926,0.068359 q 0.30762,-0.4101562 0.68359,-0.5126953 0.41016,-0.1025391 0.82031,-0.1367188 0.41016,-0.03418 0.78614,-0.102539 0.41015,-0.1025391 0.68359,-0.5126953 0.44434,0.1708984 0.82031,0.03418 0.41016,-0.1708985 0.78614,-0.444336 0.37597,-0.273438 0.75195,-0.581055 0.37598,-0.307617 0.78613,-0.410156 l -0.0342,-0.273438 q 0.61524,-0.410156 1.05957,-0.581055 0.44434,-0.170898 0.82032,-0.341796 0.37597,-0.170899 0.75195,-0.478516 0.37598,-0.307617 0.85449,-1.025391 0.1709,-0.06836 0.37598,-0.03418 0.23926,0 0.34179,0.170898 z m -11.92871,-3.383789 q -0.1709,-0.06836 -0.37597,-0.102539 -0.1709,-0.06836 -0.3418,-0.170898 -0.30762,-0.205079 -0.58105,-0.307618 -0.27344,-0.102539 -0.64942,0.06836 v 0.06836 h -0.0342 q -1.74316,1.333008 -3.24707,2.939453 -1.46973,1.572266 -3.11035,3.076172 l -0.30762,-0.307617 q -0.23926,0.307617 -0.27344,0.649414 0,0.341797 0,0.649414 0,0.307617 -0.0684,0.5810547 -0.0684,0.2734375 -0.41016,0.5126954 l -0.10254,0.068359 q 0.13672,0.4785157 0.37598,0.6152344 0.27343,0.1025391 0.54687,0.1025391 0.30762,-0.03418 0.58106,-0.068359 0.27343,-0.03418 0.44433,0.1025391 0.10254,0.068359 0.13672,0.2050781 0.0342,0.1367187 0.0342,0.2392578 0.1709,0 0.3418,0 0.20508,0 0.41015,-0.03418 0.37598,-0.068359 0.78614,0 0.44433,0.03418 0.51269,0.5126953 0.6836,-0.2734375 1.40137,-0.5810547 0.71777,-0.3076172 1.16211,-0.9912109 l 0.23926,0.2392578 q 0.0342,0 0.0342,0 0.0342,-0.03418 0.0684,-0.03418 0.85449,-0.5126953 1.333,-1.5039071 0.5127,-0.991211 0.75196,-2.15332 0.23925,-1.162109 0.27343,-2.324219 0.0684,-1.162109 0.0684,-2.050781 z"
             style="font-weight:400;font-size:35px;font-family:'Homemade Apple';letter-spacing:1;fill:#99a93c"
             id="path61" />
        </g>
      </g>
      <g
         id="zweig"
         transform="translate(0,5)">
        <g
           aria-label="B2B sales online"
           id="zwei"
           style="dominant-baseline:text-before-edge;text-rendering:geometricPrecision">
          <path
             d="m 90.4,15.417036 q 0,1.3 -0.65,2.35 -0.625,1.025 -1.725,1.65 -1.075,0.6 -2.4,0.6 h -8.3 V 2.2670364 H 85.6 q 1.25,0 2.15,0.675 0.925,0.65 1.4,1.7 0.5,1.025 0.5,2.15 0,1.325 -0.675,2.475 -0.675,1.1249996 -1.875,1.6499996 1.525,0.45 2.4,1.7 0.9,1.225 0.9,2.8 z m -1.275,-0.175 q 0,-0.95 -0.45,-1.775 -0.425,-0.825 -1.175,-1.35 -0.75,-0.525 -1.7,-0.525 h -7.2 v 7.275 h 7.025 q 0.975,0 1.775,-0.5 0.8,-0.525 1.25,-1.35 0.475,-0.85 0.475,-1.775 z M 78.6,3.4170364 v 7.0999996 h 6.5 q 0.975,0 1.7,-0.5 0.75,-0.5249996 1.175,-1.3249996 0.425,-0.825 0.425,-1.725 0,-0.975 -0.4,-1.775 -0.4,-0.8 -1.125,-1.275 -0.7,-0.5 -1.625,-0.5 z"
             style="font-weight:300;font-size:25px;font-family:Raleway;letter-spacing:1;dominant-baseline:text-before-edge;fill:#007272"
             id="path64" />
          <path
             d="m 93.677734,20.017036 q 0,-0.7 0.125,-1.55 0.15,-0.85 0.55,-1.75 0.425,-0.9 1.275,-1.75 0.85,-0.85 2.25,-1.5 0.725,-0.35 1.5,-0.7 0.799996,-0.35 1.499996,-0.8 0.7,-0.45 1.125,-1.05 0.425,-0.625 0.425,-1.4749996 0,-0.675 -0.4,-1.325 -0.375,-0.65 -1.175,-1.05 -0.8,-0.425 -1.999996,-0.425 -0.85,0 -1.55,0.25 -0.675,0.25 -1.2,0.6 -0.5,0.35 -0.85,0.7 -0.35,0.325 -0.5,0.525 l -0.85,-0.85 q 0.1,-0.1 0.475,-0.475 0.4,-0.375 1.05,-0.8 0.675,-0.45 1.575,-0.775 0.9,-0.325 2.025,-0.325 1.524996,0 2.574996,0.55 1.05,0.55 1.6,1.425 0.575,0.875 0.575,1.875 0,1.0499996 -0.475,1.7999996 -0.475,0.75 -1.2,1.3 -0.7,0.525 -1.5,0.9 -0.774996,0.375 -1.424996,0.65 -1.225,0.55 -2.025,1.2 -0.775,0.65 -1.25,1.325 -0.45,0.675 -0.675,1.275 -0.2,0.575 -0.275,1.075 h 9.099996 v 1.15 z"
             style="font-weight:300;font-size:25px;font-family:Raleway;letter-spacing:1;dominant-baseline:text-before-edge;fill:#007272"
             id="path66" />
          <path
             d="m 121.64805,15.417036 q 0,1.3 -0.65,2.35 -0.625,1.025 -1.725,1.65 -1.075,0.6 -2.4,0.6 h -8.3 V 2.2670364 h 8.275 q 1.25,0 2.15,0.675 0.925,0.65 1.4,1.7 0.5,1.025 0.5,2.15 0,1.325 -0.675,2.475 -0.675,1.1249996 -1.875,1.6499996 1.525,0.45 2.4,1.7 0.9,1.225 0.9,2.8 z m -1.275,-0.175 q 0,-0.95 -0.45,-1.775 -0.425,-0.825 -1.175,-1.35 -0.75,-0.525 -1.7,-0.525 h -7.2 v 7.275 h 7.025 q 0.975,0 1.775,-0.5 0.8,-0.525 1.25,-1.35 0.475,-0.85 0.475,-1.775 z m -10.525,-11.8249996 v 7.0999996 h 6.5 q 0.975,0 1.7,-0.5 0.75,-0.5249996 1.175,-1.3249996 0.425,-0.825 0.425,-1.725 0,-0.975 -0.4,-1.775 -0.4,-0.8 -1.125,-1.275 -0.7,-0.5 -1.625,-0.5 z"
             style="font-weight:300;font-size:25px;font-family:Raleway;letter-spacing:1;dominant-baseline:text-before-edge;fill:#007272"
             id="path68" />
          <path
             d="m 137.29609,20.267036 q -1.55,0 -2.875,-0.525 -1.325,-0.525 -2.325,-1.6 l 0.575,-0.875 q 1.075,1.025 2.175,1.5 1.1,0.45 2.4,0.45 1.675,0 2.7,-0.7 1.05,-0.7 1.05,-1.95 0,-0.85 -0.5,-1.3 -0.475,-0.475 -1.4,-0.75 -0.9,-0.3 -2.2,-0.625 -1.325,-0.35 -2.25,-0.725 -0.9,-0.375 -1.35,-0.975 -0.45,-0.6 -0.45,-1.625 0,-1.2749996 0.625,-2.0999996 0.65,-0.85 1.725,-1.25 1.1,-0.425 2.425,-0.425 1.525,0 2.65,0.5 1.15,0.5 1.75,1.325 l -0.675,0.8 q -0.625,-0.8 -1.625,-1.175 -1,-0.4 -2.2,-0.4 -0.9,0 -1.7,0.25 -0.8,0.25 -1.3,0.825 -0.475,0.55 -0.475,1.4999996 0,0.75 0.35,1.175 0.375,0.425 1.1,0.7 0.725,0.25 1.8,0.55 1.525,0.375 2.625,0.775 1.1,0.4 1.7,1.05 0.6,0.625 0.6,1.775 0,1.775 -1.35,2.8 -1.35,1.025 -3.575,1.025 z"
             style="font-weight:300;font-size:25px;font-family:Raleway;letter-spacing:1;dominant-baseline:text-before-edge;fill:#007272"
             id="path70" />
          <path
             d="m 145.08398,16.267036 q 0,-1.175 0.7,-2.025 0.7,-0.875 1.925,-1.35 1.225,-0.5 2.825,-0.5 1,0 2.075,0.175 1.075,0.175 1.925,0.475 v -1.225 q 0,-1.8 -1.05,-2.8749996 -1.025,-1.075 -2.85,-1.075 -0.975,0 -2.025,0.4 -1.05,0.4 -2.15,1.15 l -0.525,-0.9 q 1.275,-0.85 2.45,-1.275 1.2,-0.45 2.375,-0.45 2.325,0 3.675,1.375 1.35,1.375 1.35,3.7499996 v 6.45 q 0,0.3 0.125,0.45 0.15,0.15 0.425,0.175 v 1.025 q -0.225,0.025 -0.375,0.025 -0.15,0 -0.25,0 -0.475,-0.075 -0.75,-0.4 -0.25,-0.325 -0.275,-0.725 v -1.025 q -0.9,1.125 -2.325,1.75 -1.4,0.625 -2.95,0.625 -1.225,0 -2.225,-0.525 -0.975,-0.525 -1.55,-1.425 -0.55,-0.925 -0.55,-2.05 z m 8.95,1.075 q 0.25,-0.325 0.375,-0.625 0.125,-0.3 0.125,-0.55 v -2.15 q -0.9,-0.35 -1.875,-0.525 -0.975,-0.175 -2,-0.175 -1.95,0 -3.175,0.775 -1.2,0.775 -1.2,2.1 0,0.825 0.425,1.525 0.425,0.7 1.175,1.125 0.775,0.425 1.775,0.425 1.4,0 2.575,-0.525 1.2,-0.55 1.8,-1.4 z"
             style="font-weight:300;font-size:25px;font-family:Raleway;letter-spacing:1;dominant-baseline:text-before-edge;fill:#007272"
             id="path72" />
          <path
             d="m 160.68672,1.7670364 h 1.275 V 17.442036 q 0,0.9 0.375,1.25 0.375,0.325 0.975,0.325 0.4,0 0.825,-0.075 0.425,-0.075 0.75,-0.2 l 0.25,1.025 q -0.425,0.15 -1.05,0.275 -0.625,0.125 -1.075,0.125 -1.05,0 -1.7,-0.625 -0.625,-0.65 -0.625,-1.725 z"
             style="font-weight:300;font-size:25px;font-family:Raleway;letter-spacing:1;dominant-baseline:text-before-edge;fill:#007272"
             id="path74" />
          <path
             d="m 173.60586,20.267036 q -1.375,0 -2.55,-0.525 -1.175,-0.55 -2.05,-1.475 -0.85,-0.95 -1.35,-2.175 -0.475,-1.25 -0.475,-2.625 0,-1.85 0.825,-3.35 0.825,-1.4999996 2.275,-2.3999996 1.45,-0.925 3.25,-0.925 1.85,0 3.275,0.925 1.425,0.925 2.25,2.4499996 0.85,1.5 0.85,3.3 0,0.15 0,0.3 0,0.15 -0.025,0.25 h -11.4 q 0.1,1.475 0.825,2.675 0.725,1.2 1.85,1.9 1.15,0.675 2.5,0.675 1.35,0 2.55,-0.7 1.2,-0.7 1.675,-1.8 l 1.1,0.3 q -0.375,0.925 -1.2,1.65 -0.8,0.725 -1.9,1.15 -1.075,0.4 -2.275,0.4 z m -5.175,-7.225 h 10.275 q -0.1,-1.525 -0.8,-2.7 -0.7,-1.1749996 -1.85,-1.8499996 -1.125,-0.675 -2.5,-0.675 -1.375,0 -2.5,0.675 -1.125,0.675 -1.825,1.8499996 -0.7,1.175 -0.8,2.7 z"
             style="font-weight:300;font-size:25px;font-family:Raleway;letter-spacing:1;dominant-baseline:text-before-edge;fill:#007272"
             id="path76" />
          <path
             d="m 187.78047,20.267036 q -1.55,0 -2.875,-0.525 -1.325,-0.525 -2.325,-1.6 l 0.575,-0.875 q 1.075,1.025 2.175,1.5 1.1,0.45 2.4,0.45 1.675,0 2.7,-0.7 1.05,-0.7 1.05,-1.95 0,-0.85 -0.5,-1.3 -0.475,-0.475 -1.4,-0.75 -0.9,-0.3 -2.2,-0.625 -1.325,-0.35 -2.25,-0.725 -0.9,-0.375 -1.35,-0.975 -0.45,-0.6 -0.45,-1.625 0,-1.2749996 0.625,-2.0999996 0.65,-0.85 1.725,-1.25 1.1,-0.425 2.425,-0.425 1.525,0 2.65,0.5 1.15,0.5 1.75,1.325 l -0.675,0.8 q -0.625,-0.8 -1.625,-1.175 -1,-0.4 -2.2,-0.4 -0.9,0 -1.7,0.25 -0.8,0.25 -1.3,0.825 -0.475,0.55 -0.475,1.4999996 0,0.75 0.35,1.175 0.375,0.425 1.1,0.7 0.725,0.25 1.8,0.55 1.525,0.375 2.625,0.775 1.1,0.4 1.7,1.05 0.6,0.625 0.6,1.775 0,1.775 -1.35,2.8 -1.35,1.025 -3.575,1.025 z"
             style="font-weight:300;font-size:25px;font-family:Raleway;letter-spacing:1;dominant-baseline:text-before-edge;fill:#007272"
             id="path78" />
          <path
             d="m 209.53867,20.267036 q -1.375,0 -2.55,-0.525 -1.15,-0.525 -2,-1.45 -0.85,-0.95 -1.325,-2.175 -0.475,-1.225 -0.475,-2.575 0,-1.375 0.475,-2.575 0.475,-1.2249996 1.325,-2.1499996 0.875,-0.95 2.025,-1.475 1.175,-0.55 2.525,-0.55 1.35,0 2.5,0.55 1.15,0.525 2.025,1.475 0.875,0.925 1.35,2.1499996 0.475,1.2 0.475,2.575 0,1.35 -0.475,2.575 -0.475,1.225 -1.35,2.175 -0.85,0.925 -2.025,1.45 -1.15,0.525 -2.5,0.525 z m -5.1,-6.675 q 0,1.525 0.675,2.8 0.7,1.25 1.85,2 1.15,0.75 2.55,0.75 1.4,0 2.55,-0.75 1.175,-0.775 1.85,-2.05 0.7,-1.3 0.7,-2.825 0,-1.525 -0.7,-2.8 -0.675,-1.2749996 -1.85,-2.0249996 -1.15,-0.775 -2.525,-0.775 -1.4,0 -2.55,0.775 -1.15,0.775 -1.85,2.0499996 -0.7,1.275 -0.7,2.85 z"
             style="font-weight:300;font-size:25px;font-family:Raleway;letter-spacing:1;dominant-baseline:text-before-edge;fill:#007272"
             id="path80" />
          <path
             d="m 230.50859,20.017036 h -1.25 v -7.25 q 0,-2.5 -0.725,-3.6499996 -0.7,-1.175 -2.25,-1.175 -1.1,0 -2.175,0.525 -1.05,0.525 -1.85,1.45 -0.775,0.8999996 -1.125,2.0499996 v 8.05 h -1.25 V 7.0170364 h 1.175 v 3.0999996 q 0.525,-0.9999996 1.4,-1.7249996 0.875,-0.75 1.95,-1.175 1.075,-0.425 2.225,-0.425 1.075,0 1.8,0.4 0.75,0.375 1.2,1.1 0.475,0.725 0.675,1.7999996 0.2,1.075 0.2,2.45 z"
             style="font-weight:300;font-size:25px;font-family:Raleway;letter-spacing:1;dominant-baseline:text-before-edge;fill:#007272"
             id="path82" />
          <path
             d="m 235.38789,1.7670364 h 1.275 V 17.442036 q 0,0.9 0.375,1.25 0.375,0.325 0.975,0.325 0.4,0 0.825,-0.075 0.425,-0.075 0.75,-0.2 l 0.25,1.025 q -0.425,0.15 -1.05,0.275 -0.625,0.125 -1.075,0.125 -1.05,0 -1.7,-0.625 -0.625,-0.65 -0.625,-1.725 z"
             style="font-weight:300;font-size:25px;font-family:Raleway;letter-spacing:1;dominant-baseline:text-before-edge;fill:#007272"
             id="path84" />
          <path
             d="M 242.78203,20.017036 V 7.0170364 h 1.25 V 20.017036 Z m 0,-15.9499996 v -2.3 h 1.25 v 2.3 z"
             style="font-weight:300;font-size:25px;font-family:Raleway;letter-spacing:1;dominant-baseline:text-before-edge;fill:#007272"
             id="path86" />
          <path
             d="m 259.58281,20.017036 h -1.25 v -7.25 q 0,-2.5 -0.725,-3.6499996 -0.7,-1.175 -2.25,-1.175 -1.1,0 -2.175,0.525 -1.05,0.525 -1.85,1.45 -0.775,0.8999996 -1.125,2.0499996 v 8.05 h -1.25 V 7.0170364 h 1.175 v 3.0999996 q 0.525,-0.9999996 1.4,-1.7249996 0.875,-0.75 1.95,-1.175 1.075,-0.425 2.225,-0.425 1.075,0 1.8,0.4 0.75,0.375 1.2,1.1 0.475,0.725 0.675,1.7999996 0.2,1.075 0.2,2.45 z"
             style="font-weight:300;font-size:25px;font-family:Raleway;letter-spacing:1;dominant-baseline:text-before-edge;fill:#007272"
             id="path88" />
          <path
             d="m 269.88711,20.267036 q -1.375,0 -2.55,-0.525 -1.175,-0.55 -2.05,-1.475 -0.85,-0.95 -1.35,-2.175 -0.475,-1.25 -0.475,-2.625 0,-1.85 0.825,-3.35 0.825,-1.4999996 2.275,-2.3999996 1.45,-0.925 3.25,-0.925 1.85,0 3.275,0.925 1.425,0.925 2.25,2.4499996 0.85,1.5 0.85,3.3 0,0.15 0,0.3 0,0.15 -0.025,0.25 h -11.4 q 0.1,1.475 0.825,2.675 0.725,1.2 1.85,1.9 1.15,0.675 2.5,0.675 1.35,0 2.55,-0.7 1.2,-0.7 1.675,-1.8 l 1.1,0.3 q -0.375,0.925 -1.2,1.65 -0.8,0.725 -1.9,1.15 -1.075,0.4 -2.275,0.4 z m -5.175,-7.225 h 10.275 q -0.1,-1.525 -0.8,-2.7 -0.7,-1.1749996 -1.85,-1.8499996 -1.125,-0.675 -2.5,-0.675 -1.375,0 -2.5,0.675 -1.125,0.675 -1.825,1.8499996 -0.7,1.175 -0.8,2.7 z"
             style="font-weight:300;font-size:25px;font-family:Raleway;letter-spacing:1;dominant-baseline:text-before-edge;fill:#007272"
             id="path90" />
        </g>
      </g>
    </g>
  </g>
</svg>
